<svg id="visual" viewBox="0 0 900 600" width="900" height="600" xmlns="http://www.w3.org/2000/svg" xmlns:xlink="http://www.w3.org/1999/xlink" version="1.1"><rect width="900" height="600" fill="#010509"></rect><g><g transform="translate(413 63)"><path d="M0 -13.1L10.3 -8.2L12.8 2.9L5.7 11.8L-5.7 11.8L-12.8 2.9L-10.3 -8.2Z" fill="none" stroke="#181c1f" stroke-width="2"></path></g><g transform="translate(377 505)"><path d="M0 -4L3.1 -2.5L3.9 0.9L1.7 3.6L-1.7 3.6L-3.9 0.9L-3.1 -2.5Z" fill="none" stroke="#181c1f" stroke-width="2"></path></g><g transform="translate(104 463)"><path d="M0 -4L3.1 -2.5L3.9 0.9L1.7 3.6L-1.7 3.6L-3.9 0.9L-3.1 -2.5Z" fill="none" stroke="#181c1f" stroke-width="2"></path></g><g transform="translate(758 343)"><path d="M0 -8L6.3 -5L7.8 1.8L3.5 7.2L-3.5 7.2L-7.8 1.8L-6.3 -5Z" stroke="#181c1f" fill="none" stroke-width="2"></path></g><g transform="translate(235 217)"><path d="M0 -6L4.7 -3.7L5.8 1.3L2.6 5.4L-2.6 5.4L-5.8 1.3L-4.7 -3.7Z" stroke="#181c1f" fill="none" stroke-width="2"></path></g><g transform="translate(797 95)"><path d="M0 -6L4.7 -3.7L5.8 1.3L2.6 5.4L-2.6 5.4L-5.8 1.3L-4.7 -3.7Z" stroke="#181c1f" fill="none" stroke-width="2"></path></g><g transform="translate(308 272)"><path d="M0 -3L2.3 -1.9L2.9 0.7L1.3 2.7L-1.3 2.7L-2.9 0.7L-2.3 -1.9Z" stroke="#181c1f" fill="none" stroke-width="2"></path></g><g transform="translate(248 514)"><path d="M0 -9L7 -5.6L8.8 2L3.9 8.1L-3.9 8.1L-8.8 2L-7 -5.6Z" stroke="#181c1f" fill="none" stroke-width="2"></path></g><g transform="translate(135 106)"><path d="M0 -2L1.6 -1.2L1.9 0.4L0.9 1.8L-0.9 1.8L-1.9 0.4L-1.6 -1.2Z" stroke="#181c1f" fill="none" stroke-width="2"></path></g><g transform="translate(356 355)"><path d="M0 -12L9.4 -7.5L11.7 2.7L5.2 10.8L-5.2 10.8L-11.7 2.7L-9.4 -7.5Z" stroke="#181c1f" fill="none" stroke-width="2"></path></g><g transform="translate(732 545)"><path d="M0 -11L8.6 -6.9L10.7 2.4L4.8 9.9L-4.8 9.9L-10.7 2.4L-8.6 -6.9Z" stroke="#181c1f" fill="none" stroke-width="2"></path></g><g transform="translate(56 285)"><path d="M0 -7L5.5 -4.4L6.8 1.6L3 6.3L-3 6.3L-6.8 1.6L-5.5 -4.4Z" stroke="#181c1f" fill="none" stroke-width="2"></path></g><g transform="translate(186 150)"><path d="M0 -4L3.1 -2.5L3.9 0.9L1.7 3.6L-1.7 3.6L-3.9 0.9L-3.1 -2.5Z" stroke="#181c1f" fill="none" stroke-width="2"></path></g><g transform="translate(724 72)"><path d="M0 -10L7.8 -6.2L9.7 2.2L4.3 9L-4.3 9L-9.7 2.2L-7.8 -6.2Z" stroke="#181c1f" fill="none" stroke-width="2"></path></g><g transform="translate(868 54)"><path d="M0 -10L7.8 -6.2L9.7 2.2L4.3 9L-4.3 9L-9.7 2.2L-7.8 -6.2Z" stroke="#181c1f" fill="none" stroke-width="2"></path></g><g transform="translate(30 225)"><path d="M0 -8L6.3 -5L7.8 1.8L3.5 7.2L-3.5 7.2L-7.8 1.8L-6.3 -5Z" stroke="#181c1f" fill="none" stroke-width="2"></path></g><g transform="translate(498 243)"><path d="M0 -3L2.3 -1.9L2.9 0.7L1.3 2.7L-1.3 2.7L-2.9 0.7L-2.3 -1.9Z" stroke="#181c1f" fill="none" stroke-width="2"></path></g><g transform="translate(657 163)"><path d="M0 -3L2.3 -1.9L2.9 0.7L1.3 2.7L-1.3 2.7L-2.9 0.7L-2.3 -1.9Z" stroke="#181c1f" fill="none" stroke-width="2"></path></g><g transform="translate(322 114)"><path d="M0 -1L0.8 -0.6L1 0.2L0.4 0.9L-0.4 0.9L-1 0.2L-0.8 -0.6Z" stroke="#181c1f" fill="none" stroke-width="2"></path></g><g transform="translate(73 79)"><path d="M0 -1L0.8 -0.6L1 0.2L0.4 0.9L-0.4 0.9L-1 0.2L-0.8 -0.6Z" stroke="#181c1f" fill="none" stroke-width="2"></path></g><g transform="translate(766 230)"><path d="M0 -11L8.6 -6.9L10.7 2.4L4.8 9.9L-4.8 9.9L-10.7 2.4L-8.6 -6.9Z" stroke="#181c1f" fill="none" stroke-width="2"></path></g><g transform="translate(336 429)"><path d="M0 -8L6.3 -5L7.8 1.8L3.5 7.2L-3.5 7.2L-7.8 1.8L-6.3 -5Z" stroke="#181c1f" fill="none" stroke-width="2"></path></g><g transform="translate(608 178)"><path d="M0 -1L0.8 -0.6L1 0.2L0.4 0.9L-0.4 0.9L-1 0.2L-0.8 -0.6Z" stroke="#181c1f" fill="none" stroke-width="2"></path></g><g transform="translate(258 94)"><path d="M0 -8L6.3 -5L7.8 1.8L3.5 7.2L-3.5 7.2L-7.8 1.8L-6.3 -5Z" stroke="#181c1f" fill="none" stroke-width="2"></path></g><g transform="translate(595 25)"><path d="M0 -1L0.8 -0.6L1 0.2L0.4 0.9L-0.4 0.9L-1 0.2L-0.8 -0.6Z" stroke="#181c1f" fill="none" stroke-width="2"></path></g><g transform="translate(372 566)"><path d="M0 -2L1.6 -1.2L1.9 0.4L0.9 1.8L-0.9 1.8L-1.9 0.4L-1.6 -1.2Z" stroke="#181c1f" fill="none" stroke-width="2"></path></g><g transform="translate(473 115)"><path d="M0 -2L1.6 -1.2L1.9 0.4L0.9 1.8L-0.9 1.8L-1.9 0.4L-1.6 -1.2Z" stroke="#181c1f" fill="none" stroke-width="2"></path></g><g transform="translate(737 119)"><path d="M0 -2L1.6 -1.2L1.9 0.4L0.9 1.8L-0.9 1.8L-1.9 0.4L-1.6 -1.2Z" stroke="#181c1f" fill="none" stroke-width="2"></path></g><g transform="translate(249 350)"><path d="M0 -10L7.8 -6.2L9.7 2.2L4.3 9L-4.3 9L-9.7 2.2L-7.8 -6.2Z" stroke="#181c1f" fill="none" stroke-width="2"></path></g><g transform="translate(752 412)"><path d="M0 -10L7.8 -6.2L9.7 2.2L4.3 9L-4.3 9L-9.7 2.2L-7.8 -6.2Z" stroke="#181c1f" fill="none" stroke-width="2"></path></g><g transform="translate(137 311)"><path d="M0 -5L3.9 -3.1L4.9 1.1L2.2 4.5L-2.2 4.5L-4.9 1.1L-3.9 -3.1Z" stroke="#181c1f" fill="none" stroke-width="2"></path></g><g transform="translate(526 471)"><path d="M0 -11L8.6 -6.9L10.7 2.4L4.8 9.9L-4.8 9.9L-10.7 2.4L-8.6 -6.9Z" stroke="#181c1f" fill="none" stroke-width="2"></path></g><g transform="translate(711 26)"><path d="M0 -11L8.6 -6.9L10.7 2.4L4.8 9.9L-4.8 9.9L-10.7 2.4L-8.6 -6.9Z" stroke="#181c1f" fill="none" stroke-width="2"></path></g><g transform="translate(836 427)"><path d="M0 -5L3.9 -3.1L4.9 1.1L2.2 4.5L-2.2 4.5L-4.9 1.1L-3.9 -3.1Z" stroke="#181c1f" fill="none" stroke-width="2"></path></g><g transform="translate(429 491)"><path d="M0 -9L7 -5.6L8.8 2L3.9 8.1L-3.9 8.1L-8.8 2L-7 -5.6Z" stroke="#181c1f" fill="none" stroke-width="2"></path></g><g transform="translate(199 300)"><path d="M0 -5L3.9 -3.1L4.9 1.1L2.2 4.5L-2.2 4.5L-4.9 1.1L-3.9 -3.1Z" stroke="#181c1f" fill="none" stroke-width="2"></path></g><g transform="translate(216 93)"><path d="M0 -2L1.6 -1.2L1.9 0.4L0.9 1.8L-0.9 1.8L-1.9 0.4L-1.6 -1.2Z" stroke="#181c1f" fill="none" stroke-width="2"></path></g><g transform="translate(663 18)"><path d="M0 -4L3.1 -2.5L3.9 0.9L1.7 3.6L-1.7 3.6L-3.9 0.9L-3.1 -2.5Z" stroke="#181c1f" fill="none" stroke-width="2"></path></g><g transform="translate(509 345)"><path d="M0 -11L8.6 -6.9L10.7 2.4L4.8 9.9L-4.8 9.9L-10.7 2.4L-8.6 -6.9Z" stroke="#181c1f" fill="none" stroke-width="2"></path></g><g transform="translate(464 593)"><path d="M0 -5L3.9 -3.1L4.9 1.1L2.2 4.5L-2.2 4.5L-4.9 1.1L-3.9 -3.1Z" stroke="#181c1f" fill="none" stroke-width="2"></path></g><g transform="translate(855 484)"><path d="M0 -7L5.5 -4.4L6.8 1.6L3 6.3L-3 6.3L-6.8 1.6L-5.5 -4.4Z" stroke="#181c1f" fill="none" stroke-width="2"></path></g><g transform="translate(454 451)"><path d="M0 -5L3.9 -3.1L4.9 1.1L2.2 4.5L-2.2 4.5L-4.9 1.1L-3.9 -3.1Z" stroke="#181c1f" fill="none" stroke-width="2"></path></g><g transform="translate(635 302)"><path d="M0 -12L9.4 -7.5L11.7 2.7L5.2 10.8L-5.2 10.8L-11.7 2.7L-9.4 -7.5Z" stroke="#181c1f" fill="none" stroke-width="2"></path></g><g transform="translate(874 279)"><path d="M0 -10L7.8 -6.2L9.7 2.2L4.3 9L-4.3 9L-9.7 2.2L-7.8 -6.2Z" stroke="#181c1f" fill="none" stroke-width="2"></path></g><g transform="translate(23 519)"><path d="M0 -5L3.9 -3.1L4.9 1.1L2.2 4.5L-2.2 4.5L-4.9 1.1L-3.9 -3.1Z" stroke="#181c1f" fill="none" stroke-width="2"></path></g><g transform="translate(805 542)"><path d="M0 -4L3.1 -2.5L3.9 0.9L1.7 3.6L-1.7 3.6L-3.9 0.9L-3.1 -2.5Z" stroke="#181c1f" fill="none" stroke-width="2"></path></g><g transform="translate(618 387)"><path d="M0 -4L3.1 -2.5L3.9 0.9L1.7 3.6L-1.7 3.6L-3.9 0.9L-3.1 -2.5Z" stroke="#181c1f" fill="none" stroke-width="2"></path></g><g transform="translate(634 188)"><path d="M0 -8L6.3 -5L7.8 1.8L3.5 7.2L-3.5 7.2L-7.8 1.8L-6.3 -5Z" stroke="#181c1f" fill="none" stroke-width="2"></path></g><g transform="translate(636 586)"><path d="M0 -12L9.4 -7.5L11.7 2.7L5.2 10.8L-5.2 10.8L-11.7 2.7L-9.4 -7.5Z" stroke="#181c1f" fill="none" stroke-width="2"></path></g><g transform="translate(391 143)"><path d="M0 -9L7 -5.6L8.8 2L3.9 8.1L-3.9 8.1L-8.8 2L-7 -5.6Z" stroke="#181c1f" fill="none" stroke-width="2"></path></g><g transform="translate(551 554)"><path d="M0 -7L5.5 -4.4L6.8 1.6L3 6.3L-3 6.3L-6.8 1.6L-5.5 -4.4Z" stroke="#181c1f" fill="none" stroke-width="2"></path></g><g transform="translate(591 578)"><path d="M0 -4L3.1 -2.5L3.9 0.9L1.7 3.6L-1.7 3.6L-3.9 0.9L-3.1 -2.5Z" stroke="#181c1f" fill="none" stroke-width="2"></path></g><g transform="translate(879 516)"><path d="M0 -8L6.3 -5L7.8 1.8L3.5 7.2L-3.5 7.2L-7.8 1.8L-6.3 -5Z" stroke="#181c1f" fill="none" stroke-width="2"></path></g><g transform="translate(310 243)"><path d="M0 -6L4.7 -3.7L5.8 1.3L2.6 5.4L-2.6 5.4L-5.8 1.3L-4.7 -3.7Z" stroke="#181c1f" fill="none" stroke-width="2"></path></g><g transform="translate(398 414)"><path d="M0 -6L4.7 -3.7L5.8 1.3L2.6 5.4L-2.6 5.4L-5.8 1.3L-4.7 -3.7Z" stroke="#181c1f" fill="none" stroke-width="2"></path></g><g transform="translate(867 107)"><path d="M0 -2L1.6 -1.2L1.9 0.4L0.9 1.8L-0.9 1.8L-1.9 0.4L-1.6 -1.2Z" stroke="#181c1f" fill="none" stroke-width="2"></path></g><g transform="translate(774 267)"><path d="M0 -8L6.3 -5L7.8 1.8L3.5 7.2L-3.5 7.2L-7.8 1.8L-6.3 -5Z" stroke="#181c1f" fill="none" stroke-width="2"></path></g><g transform="translate(674 449)"><path d="M0 -9L7 -5.6L8.8 2L3.9 8.1L-3.9 8.1L-8.8 2L-7 -5.6Z" stroke="#181c1f" fill="none" stroke-width="2"></path></g><g transform="translate(640 32)"><path d="M0 -5L3.9 -3.1L4.9 1.1L2.2 4.5L-2.2 4.5L-4.9 1.1L-3.9 -3.1Z" stroke="#181c1f" fill="none" stroke-width="2"></path></g><g transform="translate(484 64)"><path d="M0 -9L7 -5.6L8.8 2L3.9 8.1L-3.9 8.1L-8.8 2L-7 -5.6Z" stroke="#181c1f" fill="none" stroke-width="2"></path></g><g transform="translate(211 559)"><path d="M0 -10L7.8 -6.2L9.7 2.2L4.3 9L-4.3 9L-9.7 2.2L-7.8 -6.2Z" stroke="#181c1f" fill="none" stroke-width="2"></path></g><g transform="translate(296 390)"><path d="M0 -2L1.6 -1.2L1.9 0.4L0.9 1.8L-0.9 1.8L-1.9 0.4L-1.6 -1.2Z" stroke="#181c1f" fill="none" stroke-width="2"></path></g><g transform="translate(572 197)"><path d="M0 -1L0.8 -0.6L1 0.2L0.4 0.9L-0.4 0.9L-1 0.2L-0.8 -0.6Z" stroke="#181c1f" fill="none" stroke-width="2"></path></g><g transform="translate(749 170)"><path d="M0 -11L8.6 -6.9L10.7 2.4L4.8 9.9L-4.8 9.9L-10.7 2.4L-8.6 -6.9Z" stroke="#181c1f" fill="none" stroke-width="2"></path></g><g transform="translate(538 181)"><path d="M0 -4L3.1 -2.5L3.9 0.9L1.7 3.6L-1.7 3.6L-3.9 0.9L-3.1 -2.5Z" stroke="#181c1f" fill="none" stroke-width="2"></path></g><g transform="translate(369 466)"><path d="M0 -9L7 -5.6L8.8 2L3.9 8.1L-3.9 8.1L-8.8 2L-7 -5.6Z" stroke="#181c1f" fill="none" stroke-width="2"></path></g><g transform="translate(560 483)"><path d="M0 -12L9.4 -7.5L11.7 2.7L5.2 10.8L-5.2 10.8L-11.7 2.7L-9.4 -7.5Z" stroke="#181c1f" fill="none" stroke-width="2"></path></g><g transform="translate(20 114)"><path d="M0 -5L3.9 -3.1L4.9 1.1L2.2 4.5L-2.2 4.5L-4.9 1.1L-3.9 -3.1Z" stroke="#181c1f" fill="none" stroke-width="2"></path></g><g transform="translate(858 11)"><path d="M0 -9L7 -5.6L8.8 2L3.9 8.1L-3.9 8.1L-8.8 2L-7 -5.6Z" stroke="#181c1f" fill="none" stroke-width="2"></path></g><g transform="translate(143 337)"><path d="M0 -2L1.6 -1.2L1.9 0.4L0.9 1.8L-0.9 1.8L-1.9 0.4L-1.6 -1.2Z" stroke="#181c1f" fill="none" stroke-width="2"></path></g><g transform="translate(82 51)"><path d="M0 -12L9.4 -7.5L11.7 2.7L5.2 10.8L-5.2 10.8L-11.7 2.7L-9.4 -7.5Z" stroke="#181c1f" fill="none" stroke-width="2"></path></g><g transform="translate(805 321)"><path d="M0 -7L5.5 -4.4L6.8 1.6L3 6.3L-3 6.3L-6.8 1.6L-5.5 -4.4Z" stroke="#181c1f" fill="none" stroke-width="2"></path></g><g transform="translate(558 285)"><path d="M0 -7L5.5 -4.4L6.8 1.6L3 6.3L-3 6.3L-6.8 1.6L-5.5 -4.4Z" stroke="#181c1f" fill="none" stroke-width="2"></path></g><g transform="translate(566 418)"><path d="M0 -3L2.3 -1.9L2.9 0.7L1.3 2.7L-1.3 2.7L-2.9 0.7L-2.3 -1.9Z" stroke="#181c1f" fill="none" stroke-width="2"></path></g><g transform="translate(369 189)"><path d="M0 -11L8.6 -6.9L10.7 2.4L4.8 9.9L-4.8 9.9L-10.7 2.4L-8.6 -6.9Z" stroke="#181c1f" fill="none" stroke-width="2"></path></g><g transform="translate(210 475)"><path d="M0 -9L7 -5.6L8.8 2L3.9 8.1L-3.9 8.1L-8.8 2L-7 -5.6Z" stroke="#181c1f" fill="none" stroke-width="2"></path></g><g transform="translate(309 477)"><path d="M0 -12L9.4 -7.5L11.7 2.7L5.2 10.8L-5.2 10.8L-11.7 2.7L-9.4 -7.5Z" stroke="#181c1f" fill="none" stroke-width="2"></path></g><g transform="translate(706 495)"><path d="M0 -6L4.7 -3.7L5.8 1.3L2.6 5.4L-2.6 5.4L-5.8 1.3L-4.7 -3.7Z" stroke="#181c1f" fill="none" stroke-width="2"></path></g><g transform="translate(479 32)"><path d="M0 -12L9.4 -7.5L11.7 2.7L5.2 10.8L-5.2 10.8L-11.7 2.7L-9.4 -7.5Z" stroke="#181c1f" fill="none" stroke-width="2"></path></g><g transform="translate(346 151)"><path d="M0 -11L8.6 -6.9L10.7 2.4L4.8 9.9L-4.8 9.9L-10.7 2.4L-8.6 -6.9Z" stroke="#181c1f" fill="none" stroke-width="2"></path></g><g transform="translate(187 246)"><path d="M0 -8L6.3 -5L7.8 1.8L3.5 7.2L-3.5 7.2L-7.8 1.8L-6.3 -5Z" stroke="#181c1f" fill="none" stroke-width="2"></path></g><g transform="translate(583 110)"><path d="M0 -11L8.6 -6.9L10.7 2.4L4.8 9.9L-4.8 9.9L-10.7 2.4L-8.6 -6.9Z" stroke="#181c1f" fill="none" stroke-width="2"></path></g><g transform="translate(53 483)"><path d="M0 -2L1.6 -1.2L1.9 0.4L0.9 1.8L-0.9 1.8L-1.9 0.4L-1.6 -1.2Z" stroke="#181c1f" fill="none" stroke-width="2"></path></g><g transform="translate(404 118)"><path d="M0 -9L7 -5.6L8.8 2L3.9 8.1L-3.9 8.1L-8.8 2L-7 -5.6Z" stroke="#181c1f" fill="none" stroke-width="2"></path></g><g transform="translate(856 234)"><path d="M0 -2L1.6 -1.2L1.9 0.4L0.9 1.8L-0.9 1.8L-1.9 0.4L-1.6 -1.2Z" stroke="#181c1f" fill="none" stroke-width="2"></path></g><g transform="translate(107 361)"><path d="M0 -4L3.1 -2.5L3.9 0.9L1.7 3.6L-1.7 3.6L-3.9 0.9L-3.1 -2.5Z" stroke="#181c1f" fill="none" stroke-width="2"></path></g><g transform="translate(694 346)"><path d="M0 -7L5.5 -4.4L6.8 1.6L3 6.3L-3 6.3L-6.8 1.6L-5.5 -4.4Z" stroke="#181c1f" fill="none" stroke-width="2"></path></g><g transform="translate(880 397)"><path d="M0 -1L0.8 -0.6L1 0.2L0.4 0.9L-0.4 0.9L-1 0.2L-0.8 -0.6Z" stroke="#181c1f" fill="none" stroke-width="2"></path></g><g transform="translate(273 253)"><path d="M0 -12L9.4 -7.5L11.7 2.7L5.2 10.8L-5.2 10.8L-11.7 2.7L-9.4 -7.5Z" stroke="#181c1f" fill="none" stroke-width="2"></path></g><g transform="translate(445 165)"><path d="M0 -8L6.3 -5L7.8 1.8L3.5 7.2L-3.5 7.2L-7.8 1.8L-6.3 -5Z" stroke="#181c1f" fill="none" stroke-width="2"></path></g><g transform="translate(525 212)"><path d="M0 -1L0.8 -0.6L1 0.2L0.4 0.9L-0.4 0.9L-1 0.2L-0.8 -0.6Z" stroke="#181c1f" fill="none" stroke-width="2"></path></g><g transform="translate(670 487)"><path d="M0 -8L6.3 -5L7.8 1.8L3.5 7.2L-3.5 7.2L-7.8 1.8L-6.3 -5Z" stroke="#181c1f" fill="none" stroke-width="2"></path></g><g transform="translate(299 140)"><path d="M0 -4L3.1 -2.5L3.9 0.9L1.7 3.6L-1.7 3.6L-3.9 0.9L-3.1 -2.5Z" stroke="#181c1f" fill="none" stroke-width="2"></path></g><g transform="translate(199 22)"><path d="M0 -7L5.5 -4.4L6.8 1.6L3 6.3L-3 6.3L-6.8 1.6L-5.5 -4.4Z" stroke="#181c1f" fill="none" stroke-width="2"></path></g><g transform="translate(838 172)"><path d="M0 -12L9.4 -7.5L11.7 2.7L5.2 10.8L-5.2 10.8L-11.7 2.7L-9.4 -7.5Z" stroke="#181c1f" fill="none" stroke-width="2"></path></g><g transform="translate(91 211)"><path d="M0 -8L6.3 -5L7.8 1.8L3.5 7.2L-3.5 7.2L-7.8 1.8L-6.3 -5Z" stroke="#181c1f" fill="none" stroke-width="2"></path></g><g transform="translate(735 203)"><path d="M0 -6L4.7 -3.7L5.8 1.3L2.6 5.4L-2.6 5.4L-5.8 1.3L-4.7 -3.7Z" stroke="#181c1f" fill="none" stroke-width="2"></path></g><g transform="translate(516 269)"><path d="M0 -9L7 -5.6L8.8 2L3.9 8.1L-3.9 8.1L-8.8 2L-7 -5.6Z" stroke="#181c1f" fill="none" stroke-width="2"></path></g><g transform="translate(721 263)"><path d="M0 -8L6.3 -5L7.8 1.8L3.5 7.2L-3.5 7.2L-7.8 1.8L-6.3 -5Z" stroke="#181c1f" fill="none" stroke-width="2"></path></g><g transform="translate(848 334)"><path d="M0 -12L9.4 -7.5L11.7 2.7L5.2 10.8L-5.2 10.8L-11.7 2.7L-9.4 -7.5Z" stroke="#181c1f" fill="none" stroke-width="2"></path></g><g transform="translate(494 546)"><path d="M0 -2L1.6 -1.2L1.9 0.4L0.9 1.8L-0.9 1.8L-1.9 0.4L-1.6 -1.2Z" stroke="#181c1f" fill="none" stroke-width="2"></path></g><g transform="translate(165 475)"><path d="M0 -4L3.1 -2.5L3.9 0.9L1.7 3.6L-1.7 3.6L-3.9 0.9L-3.1 -2.5Z" stroke="#181c1f" fill="none" stroke-width="2"></path></g><g transform="translate(327 186)"><path d="M0 -8L6.3 -5L7.8 1.8L3.5 7.2L-3.5 7.2L-7.8 1.8L-6.3 -5Z" stroke="#181c1f" fill="none" stroke-width="2"></path></g><g transform="translate(273 545)"><path d="M0 -2L1.6 -1.2L1.9 0.4L0.9 1.8L-0.9 1.8L-1.9 0.4L-1.6 -1.2Z" stroke="#181c1f" fill="none" stroke-width="2"></path></g><g transform="translate(782 47)"><path d="M0 -9L7 -5.6L8.8 2L3.9 8.1L-3.9 8.1L-8.8 2L-7 -5.6Z" stroke="#181c1f" fill="none" stroke-width="2"></path></g><g transform="translate(242 306)"><path d="M0 -7L5.5 -4.4L6.8 1.6L3 6.3L-3 6.3L-6.8 1.6L-5.5 -4.4Z" stroke="#181c1f" fill="none" stroke-width="2"></path></g><g transform="translate(420 383)"><path d="M0 -8L6.3 -5L7.8 1.8L3.5 7.2L-3.5 7.2L-7.8 1.8L-6.3 -5Z" stroke="#181c1f" fill="none" stroke-width="2"></path></g><g transform="translate(351 23)"><path d="M0 -1L0.8 -0.6L1 0.2L0.4 0.9L-0.4 0.9L-1 0.2L-0.8 -0.6Z" stroke="#181c1f" fill="none" stroke-width="2"></path></g><g transform="translate(684 145)"><path d="M0 -11L8.6 -6.9L10.7 2.4L4.8 9.9L-4.8 9.9L-10.7 2.4L-8.6 -6.9Z" stroke="#181c1f" fill="none" stroke-width="2"></path></g><g transform="translate(537 340)"><path d="M0 -5L3.9 -3.1L4.9 1.1L2.2 4.5L-2.2 4.5L-4.9 1.1L-3.9 -3.1Z" stroke="#181c1f" fill="none" stroke-width="2"></path></g><g transform="translate(615 249)"><path d="M0 -6L4.7 -3.7L5.8 1.3L2.6 5.4L-2.6 5.4L-5.8 1.3L-4.7 -3.7Z" stroke="#181c1f" fill="none" stroke-width="2"></path></g><g transform="translate(542 19)"><path d="M0 -1L0.8 -0.6L1 0.2L0.4 0.9L-0.4 0.9L-1 0.2L-0.8 -0.6Z" stroke="#181c1f" fill="none" stroke-width="2"></path></g><g transform="translate(240 246)"><path d="M0 -5L3.9 -3.1L4.9 1.1L2.2 4.5L-2.2 4.5L-4.9 1.1L-3.9 -3.1Z" stroke="#181c1f" fill="none" stroke-width="2"></path></g><g transform="translate(113 170)"><path d="M0 -5L3.9 -3.1L4.9 1.1L2.2 4.5L-2.2 4.5L-4.9 1.1L-3.9 -3.1Z" stroke="#181c1f" fill="none" stroke-width="2"></path></g><g transform="translate(405 234)"><path d="M0 -6L4.7 -3.7L5.8 1.3L2.6 5.4L-2.6 5.4L-5.8 1.3L-4.7 -3.7Z" stroke="#181c1f" fill="none" stroke-width="2"></path></g><g transform="translate(445 367)"><path d="M0 -2L1.6 -1.2L1.9 0.4L0.9 1.8L-0.9 1.8L-1.9 0.4L-1.6 -1.2Z" stroke="#181c1f" fill="none" stroke-width="2"></path></g><g transform="translate(554 393)"><path d="M0 -8L6.3 -5L7.8 1.8L3.5 7.2L-3.5 7.2L-7.8 1.8L-6.3 -5Z" stroke="#181c1f" fill="none" stroke-width="2"></path></g><g transform="translate(34 443)"><path d="M0 -3L2.3 -1.9L2.9 0.7L1.3 2.7L-1.3 2.7L-2.9 0.7L-2.3 -1.9Z" stroke="#181c1f" fill="none" stroke-width="2"></path></g><g transform="translate(311 36)"><path d="M0 -3L2.3 -1.9L2.9 0.7L1.3 2.7L-1.3 2.7L-2.9 0.7L-2.3 -1.9Z" stroke="#181c1f" fill="none" stroke-width="2"></path></g><g transform="translate(87 11)"><path d="M0 -11L8.6 -6.9L10.7 2.4L4.8 9.9L-4.8 9.9L-10.7 2.4L-8.6 -6.9Z" stroke="#181c1f" fill="none" stroke-width="2"></path></g><g transform="translate(364 279)"><path d="M0 -2L1.6 -1.2L1.9 0.4L0.9 1.8L-0.9 1.8L-1.9 0.4L-1.6 -1.2Z" stroke="#181c1f" fill="none" stroke-width="2"></path></g><g transform="translate(730 373)"><path d="M0 -12L9.4 -7.5L11.7 2.7L5.2 10.8L-5.2 10.8L-11.7 2.7L-9.4 -7.5Z" stroke="#181c1f" fill="none" stroke-width="2"></path></g><g transform="translate(140 454)"><path d="M0 -6L4.7 -3.7L5.8 1.3L2.6 5.4L-2.6 5.4L-5.8 1.3L-4.7 -3.7Z" stroke="#181c1f" fill="none" stroke-width="2"></path></g><g transform="translate(889 590)"><path d="M0 -4L3.1 -2.5L3.9 0.9L1.7 3.6L-1.7 3.6L-3.9 0.9L-3.1 -2.5Z" stroke="#181c1f" fill="none" stroke-width="2"></path></g><g transform="translate(79 586)"><path d="M0 -5L3.9 -3.1L4.9 1.1L2.2 4.5L-2.2 4.5L-4.9 1.1L-3.9 -3.1Z" stroke="#181c1f" fill="none" stroke-width="2"></path></g><g transform="translate(500 92)"><path d="M0 -2L1.6 -1.2L1.9 0.4L0.9 1.8L-0.9 1.8L-1.9 0.4L-1.6 -1.2Z" stroke="#181c1f" fill="none" stroke-width="2"></path></g><g transform="translate(292 77)"><path d="M0 -3L2.3 -1.9L2.9 0.7L1.3 2.7L-1.3 2.7L-2.9 0.7L-2.3 -1.9Z" stroke="#181c1f" fill="none" stroke-width="2"></path></g><g transform="translate(753 463)"><path d="M0 -3L2.3 -1.9L2.9 0.7L1.3 2.7L-1.3 2.7L-2.9 0.7L-2.3 -1.9Z" stroke="#181c1f" fill="none" stroke-width="2"></path></g><g transform="translate(773 134)"><path d="M0 -2L1.6 -1.2L1.9 0.4L0.9 1.8L-0.9 1.8L-1.9 0.4L-1.6 -1.2Z" stroke="#181c1f" fill="none" stroke-width="2"></path></g><g transform="translate(694 585)"><path d="M0 -8L6.3 -5L7.8 1.8L3.5 7.2L-3.5 7.2L-7.8 1.8L-6.3 -5Z" stroke="#181c1f" fill="none" stroke-width="2"></path></g><g transform="translate(47 414)"><path d="M0 -1L0.8 -0.6L1 0.2L0.4 0.9L-0.4 0.9L-1 0.2L-0.8 -0.6Z" stroke="#181c1f" fill="none" stroke-width="2"></path></g><g transform="translate(481 222)"><path d="M0 -8L6.3 -5L7.8 1.8L3.5 7.2L-3.5 7.2L-7.8 1.8L-6.3 -5Z" stroke="#181c1f" fill="none" stroke-width="2"></path></g><g transform="translate(359 114)"><path d="M0 -8L6.3 -5L7.8 1.8L3.5 7.2L-3.5 7.2L-7.8 1.8L-6.3 -5Z" stroke="#181c1f" fill="none" stroke-width="2"></path></g><g transform="translate(138 35)"><path d="M0 -11L8.6 -6.9L10.7 2.4L4.8 9.9L-4.8 9.9L-10.7 2.4L-8.6 -6.9Z" stroke="#181c1f" fill="none" stroke-width="2"></path></g><g transform="translate(881 81)"><path d="M0 -5L3.9 -3.1L4.9 1.1L2.2 4.5L-2.2 4.5L-4.9 1.1L-3.9 -3.1Z" stroke="#181c1f" fill="none" stroke-width="2"></path></g><g transform="translate(55 2)"><path d="M0 -6L4.7 -3.7L5.8 1.3L2.6 5.4L-2.6 5.4L-5.8 1.3L-4.7 -3.7Z" stroke="#181c1f" fill="none" stroke-width="2"></path></g><g transform="translate(235 490)"><path d="M0 -11L8.6 -6.9L10.7 2.4L4.8 9.9L-4.8 9.9L-10.7 2.4L-8.6 -6.9Z" stroke="#181c1f" fill="none" stroke-width="2"></path></g><g transform="translate(830 395)"><path d="M0 -1L0.8 -0.6L1 0.2L0.4 0.9L-0.4 0.9L-1 0.2L-0.8 -0.6Z" stroke="#181c1f" fill="none" stroke-width="2"></path></g><g transform="translate(65 165)"><path d="M0 -9L7 -5.6L8.8 2L3.9 8.1L-3.9 8.1L-8.8 2L-7 -5.6Z" stroke="#181c1f" fill="none" stroke-width="2"></path></g><g transform="translate(71 323)"><path d="M0 -10L7.8 -6.2L9.7 2.2L4.3 9L-4.3 9L-9.7 2.2L-7.8 -6.2Z" stroke="#181c1f" fill="none" stroke-width="2"></path></g><g transform="translate(555 235)"><path d="M0 -4L3.1 -2.5L3.9 0.9L1.7 3.6L-1.7 3.6L-3.9 0.9L-3.1 -2.5Z" stroke="#181c1f" fill="none" stroke-width="2"></path></g><g transform="translate(163 167)"><path d="M0 -12L9.4 -7.5L11.7 2.7L5.2 10.8L-5.2 10.8L-11.7 2.7L-9.4 -7.5Z" stroke="#181c1f" fill="none" stroke-width="2"></path></g><g transform="translate(830 559)"><path d="M0 -9L7 -5.6L8.8 2L3.9 8.1L-3.9 8.1L-8.8 2L-7 -5.6Z" stroke="#181c1f" fill="none" stroke-width="2"></path></g><g transform="translate(540 580)"><path d="M0 -3L2.3 -1.9L2.9 0.7L1.3 2.7L-1.3 2.7L-2.9 0.7L-2.3 -1.9Z" stroke="#181c1f" fill="none" stroke-width="2"></path></g><g transform="translate(534 529)"><path d="M0 -11L8.6 -6.9L10.7 2.4L4.8 9.9L-4.8 9.9L-10.7 2.4L-8.6 -6.9Z" stroke="#181c1f" fill="none" stroke-width="2"></path></g><g transform="translate(6 207)"><path d="M0 -6L4.7 -3.7L5.8 1.3L2.6 5.4L-2.6 5.4L-5.8 1.3L-4.7 -3.7Z" stroke="#181c1f" fill="none" stroke-width="2"></path></g><g transform="translate(309 340)"><path d="M0 -11L8.6 -6.9L10.7 2.4L4.8 9.9L-4.8 9.9L-10.7 2.4L-8.6 -6.9Z" stroke="#181c1f" fill="none" stroke-width="2"></path></g><g transform="translate(289 215)"><path d="M0 -9L7 -5.6L8.8 2L3.9 8.1L-3.9 8.1L-8.8 2L-7 -5.6Z" stroke="#181c1f" fill="none" stroke-width="2"></path></g><g transform="translate(109 81)"><path d="M0 -12L9.4 -7.5L11.7 2.7L5.2 10.8L-5.2 10.8L-11.7 2.7L-9.4 -7.5Z" stroke="#181c1f" fill="none" stroke-width="2"></path></g><g transform="translate(396 283)"><path d="M0 -3L2.3 -1.9L2.9 0.7L1.3 2.7L-1.3 2.7L-2.9 0.7L-2.3 -1.9Z" stroke="#181c1f" fill="none" stroke-width="2"></path></g><g transform="translate(444 20)"><path d="M0 -4L3.1 -2.5L3.9 0.9L1.7 3.6L-1.7 3.6L-3.9 0.9L-3.1 -2.5Z" stroke="#181c1f" fill="none" stroke-width="2"></path></g><g transform="translate(427 585)"><path d="M0 -3L2.3 -1.9L2.9 0.7L1.3 2.7L-1.3 2.7L-2.9 0.7L-2.3 -1.9Z" stroke="#181c1f" fill="none" stroke-width="2"></path></g><g transform="translate(180 358)"><path d="M0 -3L2.3 -1.9L2.9 0.7L1.3 2.7L-1.3 2.7L-2.9 0.7L-2.3 -1.9Z" stroke="#181c1f" fill="none" stroke-width="2"></path></g><g transform="translate(337 295)"><path d="M0 -10L7.8 -6.2L9.7 2.2L4.3 9L-4.3 9L-9.7 2.2L-7.8 -6.2Z" stroke="#181c1f" fill="none" stroke-width="2"></path></g><g transform="translate(523 57)"><path d="M0 -3L2.3 -1.9L2.9 0.7L1.3 2.7L-1.3 2.7L-2.9 0.7L-2.3 -1.9Z" stroke="#181c1f" fill="none" stroke-width="2"></path></g><g transform="translate(371 83)"><path d="M0 -9L7 -5.6L8.8 2L3.9 8.1L-3.9 8.1L-8.8 2L-7 -5.6Z" stroke="#181c1f" fill="none" stroke-width="2"></path></g><g transform="translate(306 302)"><path d="M0 -6L4.7 -3.7L5.8 1.3L2.6 5.4L-2.6 5.4L-5.8 1.3L-4.7 -3.7Z" stroke="#181c1f" fill="none" stroke-width="2"></path></g><g transform="translate(434 423)"><path d="M0 -4L3.1 -2.5L3.9 0.9L1.7 3.6L-1.7 3.6L-3.9 0.9L-3.1 -2.5Z" stroke="#181c1f" fill="none" stroke-width="2"></path></g><g transform="translate(268 151)"><path d="M0 -11L8.6 -6.9L10.7 2.4L4.8 9.9L-4.8 9.9L-10.7 2.4L-8.6 -6.9Z" stroke="#181c1f" fill="none" stroke-width="2"></path></g><g transform="translate(151 275)"><path d="M0 -6L4.7 -3.7L5.8 1.3L2.6 5.4L-2.6 5.4L-5.8 1.3L-4.7 -3.7Z" stroke="#181c1f" fill="none" stroke-width="2"></path></g><g transform="translate(763 500)"><path d="M0 -4L3.1 -2.5L3.9 0.9L1.7 3.6L-1.7 3.6L-3.9 0.9L-3.1 -2.5Z" stroke="#181c1f" fill="none" stroke-width="2"></path></g><g transform="translate(883 174)"><path d="M0 -7L5.5 -4.4L6.8 1.6L3 6.3L-3 6.3L-6.8 1.6L-5.5 -4.4Z" stroke="#181c1f" fill="none" stroke-width="2"></path></g><g transform="translate(828 82)"><path d="M0 -3L2.3 -1.9L2.9 0.7L1.3 2.7L-1.3 2.7L-2.9 0.7L-2.3 -1.9Z" stroke="#181c1f" fill="none" stroke-width="2"></path></g><g transform="translate(94 105)"><path d="M0 -10L7.8 -6.2L9.7 2.2L4.3 9L-4.3 9L-9.7 2.2L-7.8 -6.2Z" stroke="#181c1f" fill="none" stroke-width="2"></path></g><g transform="translate(792 582)"><path d="M0 -1L0.8 -0.6L1 0.2L0.4 0.9L-0.4 0.9L-1 0.2L-0.8 -0.6Z" stroke="#181c1f" fill="none" stroke-width="2"></path></g><g transform="translate(151 503)"><path d="M0 -9L7 -5.6L8.8 2L3.9 8.1L-3.9 8.1L-8.8 2L-7 -5.6Z" stroke="#181c1f" fill="none" stroke-width="2"></path></g><g transform="translate(258 375)"><path d="M0 -2L1.6 -1.2L1.9 0.4L0.9 1.8L-0.9 1.8L-1.9 0.4L-1.6 -1.2Z" stroke="#181c1f" fill="none" stroke-width="2"></path></g><g transform="translate(481 467)"><path d="M0 -8L6.3 -5L7.8 1.8L3.5 7.2L-3.5 7.2L-7.8 1.8L-6.3 -5Z" stroke="#181c1f" fill="none" stroke-width="2"></path></g><g transform="translate(18 386)"><path d="M0 -4L3.1 -2.5L3.9 0.9L1.7 3.6L-1.7 3.6L-3.9 0.9L-3.1 -2.5Z" stroke="#181c1f" fill="none" stroke-width="2"></path></g><g transform="translate(340 385)"><path d="M0 -9L7 -5.6L8.8 2L3.9 8.1L-3.9 8.1L-8.8 2L-7 -5.6Z" stroke="#181c1f" fill="none" stroke-width="2"></path></g><g transform="translate(161 556)"><path d="M0 -7L5.5 -4.4L6.8 1.6L3 6.3L-3 6.3L-6.8 1.6L-5.5 -4.4Z" stroke="#181c1f" fill="none" stroke-width="2"></path></g><g transform="translate(41 318)"><path d="M0 -7L5.5 -4.4L6.8 1.6L3 6.3L-3 6.3L-6.8 1.6L-5.5 -4.4Z" stroke="#181c1f" fill="none" stroke-width="2"></path></g><g transform="translate(631 539)"><path d="M0 -8L6.3 -5L7.8 1.8L3.5 7.2L-3.5 7.2L-7.8 1.8L-6.3 -5Z" stroke="#181c1f" fill="none" stroke-width="2"></path></g><g transform="translate(92 133)"><path d="M0 -10L7.8 -6.2L9.7 2.2L4.3 9L-4.3 9L-9.7 2.2L-7.8 -6.2Z" stroke="#181c1f" fill="none" stroke-width="2"></path></g><g transform="translate(435 316)"><path d="M0 -3L2.3 -1.9L2.9 0.7L1.3 2.7L-1.3 2.7L-2.9 0.7L-2.3 -1.9Z" stroke="#181c1f" fill="none" stroke-width="2"></path></g><g transform="translate(699 388)"><path d="M0 -11L8.6 -6.9L10.7 2.4L4.8 9.9L-4.8 9.9L-10.7 2.4L-8.6 -6.9Z" stroke="#181c1f" fill="none" stroke-width="2"></path></g><g transform="translate(792 488)"><path d="M0 -9L7 -5.6L8.8 2L3.9 8.1L-3.9 8.1L-8.8 2L-7 -5.6Z" stroke="#181c1f" fill="none" stroke-width="2"></path></g><g transform="translate(612 115)"><path d="M0 -2L1.6 -1.2L1.9 0.4L0.9 1.8L-0.9 1.8L-1.9 0.4L-1.6 -1.2Z" stroke="#181c1f" fill="none" stroke-width="2"></path></g><g transform="translate(90 505)"><path d="M0 -3L2.3 -1.9L2.9 0.7L1.3 2.7L-1.3 2.7L-2.9 0.7L-2.3 -1.9Z" stroke="#181c1f" fill="none" stroke-width="2"></path></g><g transform="translate(216 190)"><path d="M0 -7L5.5 -4.4L6.8 1.6L3 6.3L-3 6.3L-6.8 1.6L-5.5 -4.4Z" stroke="#181c1f" fill="none" stroke-width="2"></path></g><g transform="translate(394 174)"><path d="M0 -7L5.5 -4.4L6.8 1.6L3 6.3L-3 6.3L-6.8 1.6L-5.5 -4.4Z" stroke="#181c1f" fill="none" stroke-width="2"></path></g><g transform="translate(815 120)"><path d="M0 -7L5.5 -4.4L6.8 1.6L3 6.3L-3 6.3L-6.8 1.6L-5.5 -4.4Z" stroke="#181c1f" fill="none" stroke-width="2"></path></g><g transform="translate(137 596)"><path d="M0 -8L6.3 -5L7.8 1.8L3.5 7.2L-3.5 7.2L-7.8 1.8L-6.3 -5Z" stroke="#181c1f" fill="none" stroke-width="2"></path></g><g transform="translate(353 54)"><path d="M0 -6L4.7 -3.7L5.8 1.3L2.6 5.4L-2.6 5.4L-5.8 1.3L-4.7 -3.7Z" stroke="#181c1f" fill="none" stroke-width="2"></path></g><g transform="translate(696 294)"><path d="M0 -6L4.7 -3.7L5.8 1.3L2.6 5.4L-2.6 5.4L-5.8 1.3L-4.7 -3.7Z" stroke="#181c1f" fill="none" stroke-width="2"></path></g><g transform="translate(641 59)"><path d="M0 -6L4.7 -3.7L5.8 1.3L2.6 5.4L-2.6 5.4L-5.8 1.3L-4.7 -3.7Z" stroke="#181c1f" fill="none" stroke-width="2"></path></g><g transform="translate(716 143)"><path d="M0 -8L6.3 -5L7.8 1.8L3.5 7.2L-3.5 7.2L-7.8 1.8L-6.3 -5Z" stroke="#181c1f" fill="none" stroke-width="2"></path></g><g transform="translate(294 16)"><path d="M0 -12L9.4 -7.5L11.7 2.7L5.2 10.8L-5.2 10.8L-11.7 2.7L-9.4 -7.5Z" stroke="#181c1f" fill="none" stroke-width="2"></path></g><g transform="translate(835 288)"><path d="M0 -6L4.7 -3.7L5.8 1.3L2.6 5.4L-2.6 5.4L-5.8 1.3L-4.7 -3.7Z" stroke="#181c1f" fill="none" stroke-width="2"></path></g><g transform="translate(833 144)"><path d="M0 -5L3.9 -3.1L4.9 1.1L2.2 4.5L-2.2 4.5L-4.9 1.1L-3.9 -3.1Z" stroke="#181c1f" fill="none" stroke-width="2"></path></g><g transform="translate(467 199)"><path d="M0 -4L3.1 -2.5L3.9 0.9L1.7 3.6L-1.7 3.6L-3.9 0.9L-3.1 -2.5Z" stroke="#181c1f" fill="none" stroke-width="2"></path></g><g transform="translate(169 417)"><path d="M0 -5L3.9 -3.1L4.9 1.1L2.2 4.5L-2.2 4.5L-4.9 1.1L-3.9 -3.1Z" stroke="#181c1f" fill="none" stroke-width="2"></path></g><g transform="translate(592 508)"><path d="M0 -10L7.8 -6.2L9.7 2.2L4.3 9L-4.3 9L-9.7 2.2L-7.8 -6.2Z" stroke="#181c1f" fill="none" stroke-width="2"></path></g><g transform="translate(809 50)"><path d="M0 -5L3.9 -3.1L4.9 1.1L2.2 4.5L-2.2 4.5L-4.9 1.1L-3.9 -3.1Z" stroke="#181c1f" fill="none" stroke-width="2"></path></g><g transform="translate(178 529)"><path d="M0 -11L8.6 -6.9L10.7 2.4L4.8 9.9L-4.8 9.9L-10.7 2.4L-8.6 -6.9Z" stroke="#181c1f" fill="none" stroke-width="2"></path></g><g transform="translate(276 344)"><path d="M0 -7L5.5 -4.4L6.8 1.6L3 6.3L-3 6.3L-6.8 1.6L-5.5 -4.4Z" stroke="#181c1f" fill="none" stroke-width="2"></path></g><g transform="translate(203 437)"><path d="M0 -5L3.9 -3.1L4.9 1.1L2.2 4.5L-2.2 4.5L-4.9 1.1L-3.9 -3.1Z" stroke="#181c1f" fill="none" stroke-width="2"></path></g><g transform="translate(58 547)"><path d="M0 -8L6.3 -5L7.8 1.8L3.5 7.2L-3.5 7.2L-7.8 1.8L-6.3 -5Z" stroke="#181c1f" fill="none" stroke-width="2"></path></g><g transform="translate(194 590)"><path d="M0 -9L7 -5.6L8.8 2L3.9 8.1L-3.9 8.1L-8.8 2L-7 -5.6Z" stroke="#181c1f" fill="none" stroke-width="2"></path></g><g transform="translate(676 559)"><path d="M0 -10L7.8 -6.2L9.7 2.2L4.3 9L-4.3 9L-9.7 2.2L-7.8 -6.2Z" stroke="#181c1f" fill="none" stroke-width="2"></path></g><g transform="translate(165 78)"><path d="M0 -12L9.4 -7.5L11.7 2.7L5.2 10.8L-5.2 10.8L-11.7 2.7L-9.4 -7.5Z" stroke="#181c1f" fill="none" stroke-width="2"></path></g><g transform="translate(599 335)"><path d="M0 -4L3.1 -2.5L3.9 0.9L1.7 3.6L-1.7 3.6L-3.9 0.9L-3.1 -2.5Z" stroke="#181c1f" fill="none" stroke-width="2"></path></g><g transform="translate(890 481)"><path d="M0 -6L4.7 -3.7L5.8 1.3L2.6 5.4L-2.6 5.4L-5.8 1.3L-4.7 -3.7Z" stroke="#181c1f" fill="none" stroke-width="2"></path></g><g transform="translate(805 419)"><path d="M0 -2L1.6 -1.2L1.9 0.4L0.9 1.8L-0.9 1.8L-1.9 0.4L-1.6 -1.2Z" stroke="#181c1f" fill="none" stroke-width="2"></path></g><g transform="translate(64 193)"><path d="M0 -11L8.6 -6.9L10.7 2.4L4.8 9.9L-4.8 9.9L-10.7 2.4L-8.6 -6.9Z" stroke="#181c1f" fill="none" stroke-width="2"></path></g><g transform="translate(424 452)"><path d="M0 -1L0.8 -0.6L1 0.2L0.4 0.9L-0.4 0.9L-1 0.2L-0.8 -0.6Z" stroke="#181c1f" fill="none" stroke-width="2"></path></g><g transform="translate(122 547)"><path d="M0 -7L5.5 -4.4L6.8 1.6L3 6.3L-3 6.3L-6.8 1.6L-5.5 -4.4Z" stroke="#181c1f" fill="none" stroke-width="2"></path></g><g transform="translate(369 596)"><path d="M0 -5L3.9 -3.1L4.9 1.1L2.2 4.5L-2.2 4.5L-4.9 1.1L-3.9 -3.1Z" stroke="#181c1f" fill="none" stroke-width="2"></path></g><g transform="translate(485 317)"><path d="M0 -11L8.6 -6.9L10.7 2.4L4.8 9.9L-4.8 9.9L-10.7 2.4L-8.6 -6.9Z" stroke="#181c1f" fill="none" stroke-width="2"></path></g><g transform="translate(455 478)"><path d="M0 -8L6.3 -5L7.8 1.8L3.5 7.2L-3.5 7.2L-7.8 1.8L-6.3 -5Z" stroke="#181c1f" fill="none" stroke-width="2"></path></g><g transform="translate(432 552)"><path d="M0 -5L3.9 -3.1L4.9 1.1L2.2 4.5L-2.2 4.5L-4.9 1.1L-3.9 -3.1Z" stroke="#181c1f" fill="none" stroke-width="2"></path></g><g transform="translate(100 268)"><path d="M0 -10L7.8 -6.2L9.7 2.2L4.3 9L-4.3 9L-9.7 2.2L-7.8 -6.2Z" stroke="#181c1f" fill="none" stroke-width="2"></path></g><g transform="translate(454 240)"><path d="M0 -10L7.8 -6.2L9.7 2.2L4.3 9L-4.3 9L-9.7 2.2L-7.8 -6.2Z" stroke="#181c1f" fill="none" stroke-width="2"></path></g><g transform="translate(508 16)"><path d="M0 -2L1.6 -1.2L1.9 0.4L0.9 1.8L-0.9 1.8L-1.9 0.4L-1.6 -1.2Z" stroke="#181c1f" fill="none" stroke-width="2"></path></g><g transform="translate(449 527)"><path d="M0 -5L3.9 -3.1L4.9 1.1L2.2 4.5L-2.2 4.5L-4.9 1.1L-3.9 -3.1Z" stroke="#181c1f" fill="none" stroke-width="2"></path></g><g transform="translate(377 394)"><path d="M0 -7L5.5 -4.4L6.8 1.6L3 6.3L-3 6.3L-6.8 1.6L-5.5 -4.4Z" stroke="#181c1f" fill="none" stroke-width="2"></path></g><g transform="translate(586 228)"><path d="M0 -3L2.3 -1.9L2.9 0.7L1.3 2.7L-1.3 2.7L-2.9 0.7L-2.3 -1.9Z" stroke="#181c1f" fill="none" stroke-width="2"></path></g><g transform="translate(27 38)"><path d="M0 -8L6.3 -5L7.8 1.8L3.5 7.2L-3.5 7.2L-7.8 1.8L-6.3 -5Z" stroke="#181c1f" fill="none" stroke-width="2"></path></g><g transform="translate(445 128)"><path d="M0 -2L1.6 -1.2L1.9 0.4L0.9 1.8L-0.9 1.8L-1.9 0.4L-1.6 -1.2Z" stroke="#181c1f" fill="none" stroke-width="2"></path></g><g transform="translate(723 585)"><path d="M0 -7L5.5 -4.4L6.8 1.6L3 6.3L-3 6.3L-6.8 1.6L-5.5 -4.4Z" stroke="#181c1f" fill="none" stroke-width="2"></path></g><g transform="translate(652 281)"><path d="M0 -10L7.8 -6.2L9.7 2.2L4.3 9L-4.3 9L-9.7 2.2L-7.8 -6.2Z" stroke="#181c1f" fill="none" stroke-width="2"></path></g><g transform="translate(571 369)"><path d="M0 -3L2.3 -1.9L2.9 0.7L1.3 2.7L-1.3 2.7L-2.9 0.7L-2.3 -1.9Z" stroke="#181c1f" fill="none" stroke-width="2"></path></g><g transform="translate(733 293)"><path d="M0 -10L7.8 -6.2L9.7 2.2L4.3 9L-4.3 9L-9.7 2.2L-7.8 -6.2Z" stroke="#181c1f" fill="none" stroke-width="2"></path></g><g transform="translate(542 137)"><path d="M0 -5L3.9 -3.1L4.9 1.1L2.2 4.5L-2.2 4.5L-4.9 1.1L-3.9 -3.1Z" stroke="#181c1f" fill="none" stroke-width="2"></path></g><g transform="translate(502 424)"><path d="M0 -11L8.6 -6.9L10.7 2.4L4.8 9.9L-4.8 9.9L-10.7 2.4L-8.6 -6.9Z" stroke="#181c1f" fill="none" stroke-width="2"></path></g><g transform="translate(10 547)"><path d="M0 -4L3.1 -2.5L3.9 0.9L1.7 3.6L-1.7 3.6L-3.9 0.9L-3.1 -2.5Z" stroke="#181c1f" fill="none" stroke-width="2"></path></g><g transform="translate(479 438)"><path d="M0 -8L6.3 -5L7.8 1.8L3.5 7.2L-3.5 7.2L-7.8 1.8L-6.3 -5Z" stroke="#181c1f" fill="none" stroke-width="2"></path></g><g transform="translate(355 218)"><path d="M0 -12L9.4 -7.5L11.7 2.7L5.2 10.8L-5.2 10.8L-11.7 2.7L-9.4 -7.5Z" stroke="#181c1f" fill="none" stroke-width="2"></path></g><g transform="translate(755 16)"><path d="M0 -11L8.6 -6.9L10.7 2.4L4.8 9.9L-4.8 9.9L-10.7 2.4L-8.6 -6.9Z" stroke="#181c1f" fill="none" stroke-width="2"></path></g><g transform="translate(170 15)"><path d="M0 -6L4.7 -3.7L5.8 1.3L2.6 5.4L-2.6 5.4L-5.8 1.3L-4.7 -3.7Z" stroke="#181c1f" fill="none" stroke-width="2"></path></g><g transform="translate(535 501)"><path d="M0 -5L3.9 -3.1L4.9 1.1L2.2 4.5L-2.2 4.5L-4.9 1.1L-3.9 -3.1Z" stroke="#181c1f" fill="none" stroke-width="2"></path></g><g transform="translate(72 398)"><path d="M0 -6L4.7 -3.7L5.8 1.3L2.6 5.4L-2.6 5.4L-5.8 1.3L-4.7 -3.7Z" stroke="#181c1f" fill="none" stroke-width="2"></path></g><g transform="translate(761 556)"><path d="M0 -10L7.8 -6.2L9.7 2.2L4.3 9L-4.3 9L-9.7 2.2L-7.8 -6.2Z" stroke="#181c1f" fill="none" stroke-width="2"></path></g><g transform="translate(640 226)"><path d="M0 -9L7 -5.6L8.8 2L3.9 8.1L-3.9 8.1L-8.8 2L-7 -5.6Z" stroke="#181c1f" fill="none" stroke-width="2"></path></g><g transform="translate(799 168)"><path d="M0 -5L3.9 -3.1L4.9 1.1L2.2 4.5L-2.2 4.5L-4.9 1.1L-3.9 -3.1Z" stroke="#181c1f" fill="none" stroke-width="2"></path></g><g transform="translate(754 91)"><path d="M0 -4L3.1 -2.5L3.9 0.9L1.7 3.6L-1.7 3.6L-3.9 0.9L-3.1 -2.5Z" stroke="#181c1f" fill="none" stroke-width="2"></path></g><g transform="translate(845 362)"><path d="M0 -2L1.6 -1.2L1.9 0.4L0.9 1.8L-0.9 1.8L-1.9 0.4L-1.6 -1.2Z" stroke="#181c1f" fill="none" stroke-width="2"></path></g><g transform="translate(716 409)"><path d="M0 -1L0.8 -0.6L1 0.2L0.4 0.9L-0.4 0.9L-1 0.2L-0.8 -0.6Z" stroke="#181c1f" fill="none" stroke-width="2"></path></g><g transform="translate(127 397)"><path d="M0 -7L5.5 -4.4L6.8 1.6L3 6.3L-3 6.3L-6.8 1.6L-5.5 -4.4Z" stroke="#181c1f" fill="none" stroke-width="2"></path></g><g transform="translate(416 24)"><path d="M0 -7L5.5 -4.4L6.8 1.6L3 6.3L-3 6.3L-6.8 1.6L-5.5 -4.4Z" stroke="#181c1f" fill="none" stroke-width="2"></path></g><g transform="translate(824 19)"><path d="M0 -10L7.8 -6.2L9.7 2.2L4.3 9L-4.3 9L-9.7 2.2L-7.8 -6.2Z" stroke="#181c1f" fill="none" stroke-width="2"></path></g><g transform="translate(284 509)"><path d="M0 -2L1.6 -1.2L1.9 0.4L0.9 1.8L-0.9 1.8L-1.9 0.4L-1.6 -1.2Z" stroke="#181c1f" fill="none" stroke-width="2"></path></g><g transform="translate(587 536)"><path d="M0 -2L1.6 -1.2L1.9 0.4L0.9 1.8L-0.9 1.8L-1.9 0.4L-1.6 -1.2Z" stroke="#181c1f" fill="none" stroke-width="2"></path></g><g transform="translate(8 257)"><path d="M0 -2L1.6 -1.2L1.9 0.4L0.9 1.8L-0.9 1.8L-1.9 0.4L-1.6 -1.2Z" stroke="#181c1f" fill="none" stroke-width="2"></path></g><g transform="translate(801 204)"><path d="M0 -2L1.6 -1.2L1.9 0.4L0.9 1.8L-0.9 1.8L-1.9 0.4L-1.6 -1.2Z" stroke="#181c1f" fill="none" stroke-width="2"></path></g><g transform="translate(660 200)"><path d="M0 -3L2.3 -1.9L2.9 0.7L1.3 2.7L-1.3 2.7L-2.9 0.7L-2.3 -1.9Z" stroke="#181c1f" fill="none" stroke-width="2"></path></g><g transform="translate(600 447)"><path d="M0 -2L1.6 -1.2L1.9 0.4L0.9 1.8L-0.9 1.8L-1.9 0.4L-1.6 -1.2Z" stroke="#181c1f" fill="none" stroke-width="2"></path></g><g transform="translate(124 508)"><path d="M0 -7L5.5 -4.4L6.8 1.6L3 6.3L-3 6.3L-6.8 1.6L-5.5 -4.4Z" stroke="#181c1f" fill="none" stroke-width="2"></path></g><g transform="translate(662 369)"><path d="M0 -1L0.8 -0.6L1 0.2L0.4 0.9L-0.4 0.9L-1 0.2L-0.8 -0.6Z" stroke="#181c1f" fill="none" stroke-width="2"></path></g><g transform="translate(619 84)"><path d="M0 -3L2.3 -1.9L2.9 0.7L1.3 2.7L-1.3 2.7L-2.9 0.7L-2.3 -1.9Z" stroke="#181c1f" fill="none" stroke-width="2"></path></g><g transform="translate(809 371)"><path d="M0 -9L7 -5.6L8.8 2L3.9 8.1L-3.9 8.1L-8.8 2L-7 -5.6Z" stroke="#181c1f" fill="none" stroke-width="2"></path></g><g transform="translate(680 251)"><path d="M0 -5L3.9 -3.1L4.9 1.1L2.2 4.5L-2.2 4.5L-4.9 1.1L-3.9 -3.1Z" stroke="#181c1f" fill="none" stroke-width="2"></path></g><g transform="translate(37 63)"><path d="M0 -2L1.6 -1.2L1.9 0.4L0.9 1.8L-0.9 1.8L-1.9 0.4L-1.6 -1.2Z" stroke="#181c1f" fill="none" stroke-width="2"></path></g><g transform="translate(171 195)"><path d="M0 -5L3.9 -3.1L4.9 1.1L2.2 4.5L-2.2 4.5L-4.9 1.1L-3.9 -3.1Z" stroke="#181c1f" fill="none" stroke-width="2"></path></g><g transform="translate(769 598)"><path d="M0 -12L9.4 -7.5L11.7 2.7L5.2 10.8L-5.2 10.8L-11.7 2.7L-9.4 -7.5Z" stroke="#181c1f" fill="none" stroke-width="2"></path></g><g transform="translate(247 15)"><path d="M0 -11L8.6 -6.9L10.7 2.4L4.8 9.9L-4.8 9.9L-10.7 2.4L-8.6 -6.9Z" stroke="#181c1f" fill="none" stroke-width="2"></path></g><g transform="translate(226 422)"><path d="M0 -12L9.4 -7.5L11.7 2.7L5.2 10.8L-5.2 10.8L-11.7 2.7L-9.4 -7.5Z" stroke="#181c1f" fill="none" stroke-width="2"></path></g><g transform="translate(153 131)"><path d="M0 -9L7 -5.6L8.8 2L3.9 8.1L-3.9 8.1L-8.8 2L-7 -5.6Z" stroke="#181c1f" fill="none" stroke-width="2"></path></g><g transform="translate(5 467)"><path d="M0 -6L4.7 -3.7L5.8 1.3L2.6 5.4L-2.6 5.4L-5.8 1.3L-4.7 -3.7Z" stroke="#181c1f" fill="none" stroke-width="2"></path></g><g transform="translate(275 475)"><path d="M0 -9L7 -5.6L8.8 2L3.9 8.1L-3.9 8.1L-8.8 2L-7 -5.6Z" stroke="#181c1f" fill="none" stroke-width="2"></path></g><g transform="translate(72 257)"><path d="M0 -9L7 -5.6L8.8 2L3.9 8.1L-3.9 8.1L-8.8 2L-7 -5.6Z" stroke="#181c1f" fill="none" stroke-width="2"></path></g><g transform="translate(615 418)"><path d="M0 -8L6.3 -5L7.8 1.8L3.5 7.2L-3.5 7.2L-7.8 1.8L-6.3 -5Z" stroke="#181c1f" fill="none" stroke-width="2"></path></g><g transform="translate(36 575)"><path d="M0 -4L3.1 -2.5L3.9 0.9L1.7 3.6L-1.7 3.6L-3.9 0.9L-3.1 -2.5Z" stroke="#181c1f" fill="none" stroke-width="2"></path></g><g transform="translate(647 436)"><path d="M0 -4L3.1 -2.5L3.9 0.9L1.7 3.6L-1.7 3.6L-3.9 0.9L-3.1 -2.5Z" stroke="#181c1f" fill="none" stroke-width="2"></path></g><g transform="translate(585 70)"><path d="M0 -4L3.1 -2.5L3.9 0.9L1.7 3.6L-1.7 3.6L-3.9 0.9L-3.1 -2.5Z" stroke="#181c1f" fill="none" stroke-width="2"></path></g><g transform="translate(301 434)"><path d="M0 -1L0.8 -0.6L1 0.2L0.4 0.9L-0.4 0.9L-1 0.2L-0.8 -0.6Z" stroke="#181c1f" fill="none" stroke-width="2"></path></g><g transform="translate(284 582)"><path d="M0 -7L5.5 -4.4L6.8 1.6L3 6.3L-3 6.3L-6.8 1.6L-5.5 -4.4Z" stroke="#181c1f" fill="none" stroke-width="2"></path></g><g transform="translate(136 253)"><path d="M0 -7L5.5 -4.4L6.8 1.6L3 6.3L-3 6.3L-6.8 1.6L-5.5 -4.4Z" stroke="#181c1f" fill="none" stroke-width="2"></path></g><g transform="translate(890 546)"><path d="M0 -1L0.8 -0.6L1 0.2L0.4 0.9L-0.4 0.9L-1 0.2L-0.8 -0.6Z" stroke="#181c1f" fill="none" stroke-width="2"></path></g><g transform="translate(502 377)"><path d="M0 -10L7.8 -6.2L9.7 2.2L4.3 9L-4.3 9L-9.7 2.2L-7.8 -6.2Z" stroke="#181c1f" fill="none" stroke-width="2"></path></g><g transform="translate(634 509)"><path d="M0 -2L1.6 -1.2L1.9 0.4L0.9 1.8L-0.9 1.8L-1.9 0.4L-1.6 -1.2Z" stroke="#181c1f" fill="none" stroke-width="2"></path></g><g transform="translate(436 287)"><path d="M0 -2L1.6 -1.2L1.9 0.4L0.9 1.8L-0.9 1.8L-1.9 0.4L-1.6 -1.2Z" stroke="#181c1f" fill="none" stroke-width="2"></path></g><g transform="translate(676 519)"><path d="M0 -3L2.3 -1.9L2.9 0.7L1.3 2.7L-1.3 2.7L-2.9 0.7L-2.3 -1.9Z" stroke="#181c1f" fill="none" stroke-width="2"></path></g><g transform="translate(474 383)"><path d="M0 -10L7.8 -6.2L9.7 2.2L4.3 9L-4.3 9L-9.7 2.2L-7.8 -6.2Z" stroke="#181c1f" fill="none" stroke-width="2"></path></g><g transform="translate(123 2)"><path d="M0 -2L1.6 -1.2L1.9 0.4L0.9 1.8L-0.9 1.8L-1.9 0.4L-1.6 -1.2Z" stroke="#181c1f" fill="none" stroke-width="2"></path></g><g transform="translate(734 491)"><path d="M0 -3L2.3 -1.9L2.9 0.7L1.3 2.7L-1.3 2.7L-2.9 0.7L-2.3 -1.9Z" stroke="#181c1f" fill="none" stroke-width="2"></path></g><g transform="translate(679 76)"><path d="M0 -7L5.5 -4.4L6.8 1.6L3 6.3L-3 6.3L-6.8 1.6L-5.5 -4.4Z" stroke="#181c1f" fill="none" stroke-width="2"></path></g><g transform="translate(528 386)"><path d="M0 -4L3.1 -2.5L3.9 0.9L1.7 3.6L-1.7 3.6L-3.9 0.9L-3.1 -2.5Z" stroke="#181c1f" fill="none" stroke-width="2"></path></g><g transform="translate(319 536)"><path d="M0 -3L2.3 -1.9L2.9 0.7L1.3 2.7L-1.3 2.7L-2.9 0.7L-2.3 -1.9Z" stroke="#181c1f" fill="none" stroke-width="2"></path></g><g transform="translate(875 439)"><path d="M0 -7L5.5 -4.4L6.8 1.6L3 6.3L-3 6.3L-6.8 1.6L-5.5 -4.4Z" stroke="#181c1f" fill="none" stroke-width="2"></path></g><g transform="translate(831 595)"><path d="M0 -1L0.8 -0.6L1 0.2L0.4 0.9L-0.4 0.9L-1 0.2L-0.8 -0.6Z" stroke="#181c1f" fill="none" stroke-width="2"></path></g><g transform="translate(26 145)"><path d="M0 -8L6.3 -5L7.8 1.8L3.5 7.2L-3.5 7.2L-7.8 1.8L-6.3 -5Z" stroke="#181c1f" fill="none" stroke-width="2"></path></g><g transform="translate(879 314)"><path d="M0 -6L4.7 -3.7L5.8 1.3L2.6 5.4L-2.6 5.4L-5.8 1.3L-4.7 -3.7Z" stroke="#181c1f" fill="none" stroke-width="2"></path></g><g transform="translate(254 174)"><path d="M0 -7L5.5 -4.4L6.8 1.6L3 6.3L-3 6.3L-6.8 1.6L-5.5 -4.4Z" stroke="#181c1f" fill="none" stroke-width="2"></path></g><g transform="translate(347 495)"><path d="M0 -8L6.3 -5L7.8 1.8L3.5 7.2L-3.5 7.2L-7.8 1.8L-6.3 -5Z" stroke="#181c1f" fill="none" stroke-width="2"></path></g><g transform="translate(658 408)"><path d="M0 -3L2.3 -1.9L2.9 0.7L1.3 2.7L-1.3 2.7L-2.9 0.7L-2.3 -1.9Z" stroke="#181c1f" fill="none" stroke-width="2"></path></g><g transform="translate(858 536)"><path d="M0 -12L9.4 -7.5L11.7 2.7L5.2 10.8L-5.2 10.8L-11.7 2.7L-9.4 -7.5Z" stroke="#181c1f" fill="none" stroke-width="2"></path></g><g transform="translate(591 267)"><path d="M0 -4L3.1 -2.5L3.9 0.9L1.7 3.6L-1.7 3.6L-3.9 0.9L-3.1 -2.5Z" stroke="#181c1f" fill="none" stroke-width="2"></path></g><g transform="translate(830 470)"><path d="M0 -11L8.6 -6.9L10.7 2.4L4.8 9.9L-4.8 9.9L-10.7 2.4L-8.6 -6.9Z" stroke="#181c1f" fill="none" stroke-width="2"></path></g><g transform="translate(281 190)"><path d="M0 -12L9.4 -7.5L11.7 2.7L5.2 10.8L-5.2 10.8L-11.7 2.7L-9.4 -7.5Z" stroke="#181c1f" fill="none" stroke-width="2"></path></g><g transform="translate(417 153)"><path d="M0 -3L2.3 -1.9L2.9 0.7L1.3 2.7L-1.3 2.7L-2.9 0.7L-2.3 -1.9Z" stroke="#181c1f" fill="none" stroke-width="2"></path></g><g transform="translate(793 7)"><path d="M0 -1L0.8 -0.6L1 0.2L0.4 0.9L-0.4 0.9L-1 0.2L-0.8 -0.6Z" stroke="#181c1f" fill="none" stroke-width="2"></path></g><g transform="translate(652 110)"><path d="M0 -5L3.9 -3.1L4.9 1.1L2.2 4.5L-2.2 4.5L-4.9 1.1L-3.9 -3.1Z" stroke="#181c1f" fill="none" stroke-width="2"></path></g><g transform="translate(826 496)"><path d="M0 -8L6.3 -5L7.8 1.8L3.5 7.2L-3.5 7.2L-7.8 1.8L-6.3 -5Z" stroke="#181c1f" fill="none" stroke-width="2"></path></g><g transform="translate(411 334)"><path d="M0 -8L6.3 -5L7.8 1.8L3.5 7.2L-3.5 7.2L-7.8 1.8L-6.3 -5Z" stroke="#181c1f" fill="none" stroke-width="2"></path></g><g transform="translate(693 229)"><path d="M0 -10L7.8 -6.2L9.7 2.2L4.3 9L-4.3 9L-9.7 2.2L-7.8 -6.2Z" stroke="#181c1f" fill="none" stroke-width="2"></path></g><g transform="translate(387 348)"><path d="M0 -1L0.8 -0.6L1 0.2L0.4 0.9L-0.4 0.9L-1 0.2L-0.8 -0.6Z" stroke="#181c1f" fill="none" stroke-width="2"></path></g><g transform="translate(803 451)"><path d="M0 -8L6.3 -5L7.8 1.8L3.5 7.2L-3.5 7.2L-7.8 1.8L-6.3 -5Z" stroke="#181c1f" fill="none" stroke-width="2"></path></g><g transform="translate(187 392)"><path d="M0 -1L0.8 -0.6L1 0.2L0.4 0.9L-0.4 0.9L-1 0.2L-0.8 -0.6Z" stroke="#181c1f" fill="none" stroke-width="2"></path></g><g transform="translate(563 330)"><path d="M0 -8L6.3 -5L7.8 1.8L3.5 7.2L-3.5 7.2L-7.8 1.8L-6.3 -5Z" stroke="#181c1f" fill="none" stroke-width="2"></path></g><g transform="translate(127 286)"><path d="M0 -5L3.9 -3.1L4.9 1.1L2.2 4.5L-2.2 4.5L-4.9 1.1L-3.9 -3.1Z" stroke="#181c1f" fill="none" stroke-width="2"></path></g><g transform="translate(59 134)"><path d="M0 -2L1.6 -1.2L1.9 0.4L0.9 1.8L-0.9 1.8L-1.9 0.4L-1.6 -1.2Z" stroke="#181c1f" fill="none" stroke-width="2"></path></g><g transform="translate(886 219)"><path d="M0 -8L6.3 -5L7.8 1.8L3.5 7.2L-3.5 7.2L-7.8 1.8L-6.3 -5Z" stroke="#181c1f" fill="none" stroke-width="2"></path></g><g transform="translate(716 172)"><path d="M0 -5L3.9 -3.1L4.9 1.1L2.2 4.5L-2.2 4.5L-4.9 1.1L-3.9 -3.1Z" stroke="#181c1f" fill="none" stroke-width="2"></path></g><g transform="translate(846 259)"><path d="M0 -4L3.1 -2.5L3.9 0.9L1.7 3.6L-1.7 3.6L-3.9 0.9L-3.1 -2.5Z" stroke="#181c1f" fill="none" stroke-width="2"></path></g><g transform="translate(776 180)"><path d="M0 -2L1.6 -1.2L1.9 0.4L0.9 1.8L-0.9 1.8L-1.9 0.4L-1.6 -1.2Z" stroke="#181c1f" fill="none" stroke-width="2"></path></g><g transform="translate(495 153)"><path d="M0 -8L6.3 -5L7.8 1.8L3.5 7.2L-3.5 7.2L-7.8 1.8L-6.3 -5Z" stroke="#181c1f" fill="none" stroke-width="2"></path></g><g transform="translate(201 115)"><path d="M0 -4L3.1 -2.5L3.9 0.9L1.7 3.6L-1.7 3.6L-3.9 0.9L-3.1 -2.5Z" stroke="#181c1f" fill="none" stroke-width="2"></path></g><g transform="translate(236 540)"><path d="M0 -6L4.7 -3.7L5.8 1.3L2.6 5.4L-2.6 5.4L-5.8 1.3L-4.7 -3.7Z" stroke="#181c1f" fill="none" stroke-width="2"></path></g><g transform="translate(10 65)"><path d="M0 -12L9.4 -7.5L11.7 2.7L5.2 10.8L-5.2 10.8L-11.7 2.7L-9.4 -7.5Z" stroke="#181c1f" fill="none" stroke-width="2"></path></g><g transform="translate(828 236)"><path d="M0 -10L7.8 -6.2L9.7 2.2L4.3 9L-4.3 9L-9.7 2.2L-7.8 -6.2Z" stroke="#181c1f" fill="none" stroke-width="2"></path></g><g transform="translate(97 314)"><path d="M0 -5L3.9 -3.1L4.9 1.1L2.2 4.5L-2.2 4.5L-4.9 1.1L-3.9 -3.1Z" stroke="#181c1f" fill="none" stroke-width="2"></path></g><g transform="translate(389 6)"><path d="M0 -6L4.7 -3.7L5.8 1.3L2.6 5.4L-2.6 5.4L-5.8 1.3L-4.7 -3.7Z" stroke="#181c1f" fill="none" stroke-width="2"></path></g><g transform="translate(779 414)"><path d="M0 -6L4.7 -3.7L5.8 1.3L2.6 5.4L-2.6 5.4L-5.8 1.3L-4.7 -3.7Z" stroke="#181c1f" fill="none" stroke-width="2"></path></g><g transform="translate(107 424)"><path d="M0 -10L7.8 -6.2L9.7 2.2L4.3 9L-4.3 9L-9.7 2.2L-7.8 -6.2Z" stroke="#181c1f" fill="none" stroke-width="2"></path></g><g transform="translate(423 179)"><path d="M0 -2L1.6 -1.2L1.9 0.4L0.9 1.8L-0.9 1.8L-1.9 0.4L-1.6 -1.2Z" stroke="#181c1f" fill="none" stroke-width="2"></path></g><g transform="translate(237 449)"><path d="M0 -2L1.6 -1.2L1.9 0.4L0.9 1.8L-0.9 1.8L-1.9 0.4L-1.6 -1.2Z" stroke="#181c1f" fill="none" stroke-width="2"></path></g><g transform="translate(104 241)"><path d="M0 -8L6.3 -5L7.8 1.8L3.5 7.2L-3.5 7.2L-7.8 1.8L-6.3 -5Z" stroke="#181c1f" fill="none" stroke-width="2"></path></g><g transform="translate(403 555)"><path d="M0 -8L6.3 -5L7.8 1.8L3.5 7.2L-3.5 7.2L-7.8 1.8L-6.3 -5Z" stroke="#181c1f" fill="none" stroke-width="2"></path></g><g transform="translate(763 303)"><path d="M0 -10L7.8 -6.2L9.7 2.2L4.3 9L-4.3 9L-9.7 2.2L-7.8 -6.2Z" stroke="#181c1f" fill="none" stroke-width="2"></path></g><g transform="translate(487 274)"><path d="M0 -4L3.1 -2.5L3.9 0.9L1.7 3.6L-1.7 3.6L-3.9 0.9L-3.1 -2.5Z" stroke="#181c1f" fill="none" stroke-width="2"></path></g><g transform="translate(887 32)"><path d="M0 -1L0.8 -0.6L1 0.2L0.4 0.9L-0.4 0.9L-1 0.2L-0.8 -0.6Z" stroke="#181c1f" fill="none" stroke-width="2"></path></g><g transform="translate(894 146)"><path d="M0 -9L7 -5.6L8.8 2L3.9 8.1L-3.9 8.1L-8.8 2L-7 -5.6Z" stroke="#181c1f" fill="none" stroke-width="2"></path></g><g transform="translate(165 50)"><path d="M0 -1L0.8 -0.6L1 0.2L0.4 0.9L-0.4 0.9L-1 0.2L-0.8 -0.6Z" stroke="#181c1f" fill="none" stroke-width="2"></path></g><g transform="translate(499 509)"><path d="M0 -8L6.3 -5L7.8 1.8L3.5 7.2L-3.5 7.2L-7.8 1.8L-6.3 -5Z" stroke="#181c1f" fill="none" stroke-width="2"></path></g><g transform="translate(239 572)"><path d="M0 -12L9.4 -7.5L11.7 2.7L5.2 10.8L-5.2 10.8L-11.7 2.7L-9.4 -7.5Z" stroke="#181c1f" fill="none" stroke-width="2"></path></g><g transform="translate(876 368)"><path d="M0 -2L1.6 -1.2L1.9 0.4L0.9 1.8L-0.9 1.8L-1.9 0.4L-1.6 -1.2Z" stroke="#181c1f" fill="none" stroke-width="2"></path></g><g transform="translate(524 311)"><path d="M0 -1L0.8 -0.6L1 0.2L0.4 0.9L-0.4 0.9L-1 0.2L-0.8 -0.6Z" stroke="#181c1f" fill="none" stroke-width="2"></path></g><g transform="translate(603 364)"><path d="M0 -4L3.1 -2.5L3.9 0.9L1.7 3.6L-1.7 3.6L-3.9 0.9L-3.1 -2.5Z" stroke="#181c1f" fill="none" stroke-width="2"></path></g><g transform="translate(323 509)"><path d="M0 -11L8.6 -6.9L10.7 2.4L4.8 9.9L-4.8 9.9L-10.7 2.4L-8.6 -6.9Z" stroke="#181c1f" fill="none" stroke-width="2"></path></g><g transform="translate(498 598)"><path d="M0 -3L2.3 -1.9L2.9 0.7L1.3 2.7L-1.3 2.7L-2.9 0.7L-2.3 -1.9Z" stroke="#181c1f" fill="none" stroke-width="2"></path></g><g transform="translate(231 275)"><path d="M0 -2L1.6 -1.2L1.9 0.4L0.9 1.8L-0.9 1.8L-1.9 0.4L-1.6 -1.2Z" stroke="#181c1f" fill="none" stroke-width="2"></path></g><g transform="translate(131 211)"><path d="M0 -9L7 -5.6L8.8 2L3.9 8.1L-3.9 8.1L-8.8 2L-7 -5.6Z" stroke="#181c1f" fill="none" stroke-width="2"></path></g><g transform="translate(281 285)"><path d="M0 -12L9.4 -7.5L11.7 2.7L5.2 10.8L-5.2 10.8L-11.7 2.7L-9.4 -7.5Z" stroke="#181c1f" fill="none" stroke-width="2"></path></g><g transform="translate(629 148)"><path d="M0 -6L4.7 -3.7L5.8 1.3L2.6 5.4L-2.6 5.4L-5.8 1.3L-4.7 -3.7Z" stroke="#181c1f" fill="none" stroke-width="2"></path></g><g transform="translate(457 562)"><path d="M0 -5L3.9 -3.1L4.9 1.1L2.2 4.5L-2.2 4.5L-4.9 1.1L-3.9 -3.1Z" stroke="#181c1f" fill="none" stroke-width="2"></path></g><g transform="translate(227 374)"><path d="M0 -8L6.3 -5L7.8 1.8L3.5 7.2L-3.5 7.2L-7.8 1.8L-6.3 -5Z" stroke="#181c1f" fill="none" stroke-width="2"></path></g><g transform="translate(444 56)"><path d="M0 -3L2.3 -1.9L2.9 0.7L1.3 2.7L-1.3 2.7L-2.9 0.7L-2.3 -1.9Z" stroke="#181c1f" fill="none" stroke-width="2"></path></g><g transform="translate(566 5)"><path d="M0 -4L3.1 -2.5L3.9 0.9L1.7 3.6L-1.7 3.6L-3.9 0.9L-3.1 -2.5Z" stroke="#181c1f" fill="none" stroke-width="2"></path></g><g transform="translate(254 410)"><path d="M0 -12L9.4 -7.5L11.7 2.7L5.2 10.8L-5.2 10.8L-11.7 2.7L-9.4 -7.5Z" stroke="#181c1f" fill="none" stroke-width="2"></path></g><g transform="translate(342 258)"><path d="M0 -11L8.6 -6.9L10.7 2.4L4.8 9.9L-4.8 9.9L-10.7 2.4L-8.6 -6.9Z" stroke="#181c1f" fill="none" stroke-width="2"></path></g><g transform="translate(250 58)"><path d="M0 -11L8.6 -6.9L10.7 2.4L4.8 9.9L-4.8 9.9L-10.7 2.4L-8.6 -6.9Z" stroke="#181c1f" fill="none" stroke-width="2"></path></g><g transform="translate(24 489)"><path d="M0 -1L0.8 -0.6L1 0.2L0.4 0.9L-0.4 0.9L-1 0.2L-0.8 -0.6Z" stroke="#181c1f" fill="none" stroke-width="2"></path></g><g transform="translate(311 569)"><path d="M0 -9L7 -5.6L8.8 2L3.9 8.1L-3.9 8.1L-8.8 2L-7 -5.6Z" stroke="#181c1f" fill="none" stroke-width="2"></path></g><g transform="translate(702 443)"><path d="M0 -7L5.5 -4.4L6.8 1.6L3 6.3L-3 6.3L-6.8 1.6L-5.5 -4.4Z" stroke="#181c1f" fill="none" stroke-width="2"></path></g><g transform="translate(716 522)"><path d="M0 -3L2.3 -1.9L2.9 0.7L1.3 2.7L-1.3 2.7L-2.9 0.7L-2.3 -1.9Z" stroke="#181c1f" fill="none" stroke-width="2"></path></g><g transform="translate(52 515)"><path d="M0 -2L1.6 -1.2L1.9 0.4L0.9 1.8L-0.9 1.8L-1.9 0.4L-1.6 -1.2Z" stroke="#181c1f" fill="none" stroke-width="2"></path></g><g transform="translate(745 248)"><path d="M0 -7L5.5 -4.4L6.8 1.6L3 6.3L-3 6.3L-6.8 1.6L-5.5 -4.4Z" stroke="#181c1f" fill="none" stroke-width="2"></path></g><g transform="translate(60 448)"><path d="M0 -9L7 -5.6L8.8 2L3.9 8.1L-3.9 8.1L-8.8 2L-7 -5.6Z" stroke="#181c1f" fill="none" stroke-width="2"></path></g><g transform="translate(103 567)"><path d="M0 -11L8.6 -6.9L10.7 2.4L4.8 9.9L-4.8 9.9L-10.7 2.4L-8.6 -6.9Z" stroke="#181c1f" fill="none" stroke-width="2"></path></g><g transform="translate(719 233)"><path d="M0 -5L3.9 -3.1L4.9 1.1L2.2 4.5L-2.2 4.5L-4.9 1.1L-3.9 -3.1Z" stroke="#181c1f" fill="none" stroke-width="2"></path></g><g transform="translate(288 113)"><path d="M0 -5L3.9 -3.1L4.9 1.1L2.2 4.5L-2.2 4.5L-4.9 1.1L-3.9 -3.1Z" stroke="#181c1f" fill="none" stroke-width="2"></path></g><g transform="translate(598 305)"><path d="M0 -8L6.3 -5L7.8 1.8L3.5 7.2L-3.5 7.2L-7.8 1.8L-6.3 -5Z" stroke="#181c1f" fill="none" stroke-width="2"></path></g><g transform="translate(684 414)"><path d="M0 -10L7.8 -6.2L9.7 2.2L4.3 9L-4.3 9L-9.7 2.2L-7.8 -6.2Z" stroke="#181c1f" fill="none" stroke-width="2"></path></g><g transform="translate(139 422)"><path d="M0 -5L3.9 -3.1L4.9 1.1L2.2 4.5L-2.2 4.5L-4.9 1.1L-3.9 -3.1Z" stroke="#181c1f" fill="none" stroke-width="2"></path></g><g transform="translate(686 188)"><path d="M0 -11L8.6 -6.9L10.7 2.4L4.8 9.9L-4.8 9.9L-10.7 2.4L-8.6 -6.9Z" stroke="#181c1f" fill="none" stroke-width="2"></path></g><g transform="translate(553 64)"><path d="M0 -8L6.3 -5L7.8 1.8L3.5 7.2L-3.5 7.2L-7.8 1.8L-6.3 -5Z" stroke="#181c1f" fill="none" stroke-width="2"></path></g><g transform="translate(211 504)"><path d="M0 -5L3.9 -3.1L4.9 1.1L2.2 4.5L-2.2 4.5L-4.9 1.1L-3.9 -3.1Z" stroke="#181c1f" fill="none" stroke-width="2"></path></g><g transform="translate(220 325)"><path d="M0 -5L3.9 -3.1L4.9 1.1L2.2 4.5L-2.2 4.5L-4.9 1.1L-3.9 -3.1Z" stroke="#181c1f" fill="none" stroke-width="2"></path></g><g transform="translate(671 48)"><path d="M0 -8L6.3 -5L7.8 1.8L3.5 7.2L-3.5 7.2L-7.8 1.8L-6.3 -5Z" stroke="#181c1f" fill="none" stroke-width="2"></path></g><g transform="translate(724 344)"><path d="M0 -8L6.3 -5L7.8 1.8L3.5 7.2L-3.5 7.2L-7.8 1.8L-6.3 -5Z" stroke="#181c1f" fill="none" stroke-width="2"></path></g><g transform="translate(197 64)"><path d="M0 -9L7 -5.6L8.8 2L3.9 8.1L-3.9 8.1L-8.8 2L-7 -5.6Z" stroke="#181c1f" fill="none" stroke-width="2"></path></g><g transform="translate(242 122)"><path d="M0 -6L4.7 -3.7L5.8 1.3L2.6 5.4L-2.6 5.4L-5.8 1.3L-4.7 -3.7Z" stroke="#181c1f" fill="none" stroke-width="2"></path></g><g transform="translate(103 33)"><path d="M0 -10L7.8 -6.2L9.7 2.2L4.3 9L-4.3 9L-9.7 2.2L-7.8 -6.2Z" stroke="#181c1f" fill="none" stroke-width="2"></path></g><g transform="translate(629 351)"><path d="M0 -7L5.5 -4.4L6.8 1.6L3 6.3L-3 6.3L-6.8 1.6L-5.5 -4.4Z" stroke="#181c1f" fill="none" stroke-width="2"></path></g><g transform="translate(400 463)"><path d="M0 -9L7 -5.6L8.8 2L3.9 8.1L-3.9 8.1L-8.8 2L-7 -5.6Z" stroke="#181c1f" fill="none" stroke-width="2"></path></g><g transform="translate(686 113)"><path d="M0 -6L4.7 -3.7L5.8 1.3L2.6 5.4L-2.6 5.4L-5.8 1.3L-4.7 -3.7Z" stroke="#181c1f" fill="none" stroke-width="2"></path></g><g transform="translate(548 101)"><path d="M0 -8L6.3 -5L7.8 1.8L3.5 7.2L-3.5 7.2L-7.8 1.8L-6.3 -5Z" stroke="#181c1f" fill="none" stroke-width="2"></path></g><g transform="translate(781 360)"><path d="M0 -5L3.9 -3.1L4.9 1.1L2.2 4.5L-2.2 4.5L-4.9 1.1L-3.9 -3.1Z" stroke="#181c1f" fill="none" stroke-width="2"></path></g><g transform="translate(635 475)"><path d="M0 -3L2.3 -1.9L2.9 0.7L1.3 2.7L-1.3 2.7L-2.9 0.7L-2.3 -1.9Z" stroke="#181c1f" fill="none" stroke-width="2"></path></g><g transform="translate(53 362)"><path d="M0 -4L3.1 -2.5L3.9 0.9L1.7 3.6L-1.7 3.6L-3.9 0.9L-3.1 -2.5Z" stroke="#181c1f" fill="none" stroke-width="2"></path></g><g transform="translate(586 399)"><path d="M0 -4L3.1 -2.5L3.9 0.9L1.7 3.6L-1.7 3.6L-3.9 0.9L-3.1 -2.5Z" stroke="#181c1f" fill="none" stroke-width="2"></path></g><g transform="translate(188 324)"><path d="M0 -6L4.7 -3.7L5.8 1.3L2.6 5.4L-2.6 5.4L-5.8 1.3L-4.7 -3.7Z" stroke="#181c1f" fill="none" stroke-width="2"></path></g><g transform="translate(435 88)"><path d="M0 -1L0.8 -0.6L1 0.2L0.4 0.9L-0.4 0.9L-1 0.2L-0.8 -0.6Z" stroke="#181c1f" fill="none" stroke-width="2"></path></g><g transform="translate(354 533)"><path d="M0 -1L0.8 -0.6L1 0.2L0.4 0.9L-0.4 0.9L-1 0.2L-0.8 -0.6Z" stroke="#181c1f" fill="none" stroke-width="2"></path></g><g transform="translate(794 241)"><path d="M0 -10L7.8 -6.2L9.7 2.2L4.3 9L-4.3 9L-9.7 2.2L-7.8 -6.2Z" stroke="#181c1f" fill="none" stroke-width="2"></path></g><g transform="translate(319 369)"><path d="M0 -7L5.5 -4.4L6.8 1.6L3 6.3L-3 6.3L-6.8 1.6L-5.5 -4.4Z" stroke="#181c1f" fill="none" stroke-width="2"></path></g><g transform="translate(897 110)"><path d="M0 -2L1.6 -1.2L1.9 0.4L0.9 1.8L-0.9 1.8L-1.9 0.4L-1.6 -1.2Z" stroke="#181c1f" fill="none" stroke-width="2"></path></g><g transform="translate(506 178)"><path d="M0 -3L2.3 -1.9L2.9 0.7L1.3 2.7L-1.3 2.7L-2.9 0.7L-2.3 -1.9Z" stroke="#181c1f" fill="none" stroke-width="2"></path></g><g transform="translate(658 335)"><path d="M0 -9L7 -5.6L8.8 2L3.9 8.1L-3.9 8.1L-8.8 2L-7 -5.6Z" stroke="#181c1f" fill="none" stroke-width="2"></path></g><g transform="translate(510 118)"><path d="M0 -4L3.1 -2.5L3.9 0.9L1.7 3.6L-1.7 3.6L-3.9 0.9L-3.1 -2.5Z" stroke="#181c1f" fill="none" stroke-width="2"></path></g><g transform="translate(666 595)"><path d="M0 -2L1.6 -1.2L1.9 0.4L0.9 1.8L-0.9 1.8L-1.9 0.4L-1.6 -1.2Z" stroke="#181c1f" fill="none" stroke-width="2"></path></g><g transform="translate(35 269)"><path d="M0 -6L4.7 -3.7L5.8 1.3L2.6 5.4L-2.6 5.4L-5.8 1.3L-4.7 -3.7Z" stroke="#181c1f" fill="none" stroke-width="2"></path></g><g transform="translate(860 574)"><path d="M0 -1L0.8 -0.6L1 0.2L0.4 0.9L-0.4 0.9L-1 0.2L-0.8 -0.6Z" stroke="#181c1f" fill="none" stroke-width="2"></path></g><g transform="translate(794 515)"><path d="M0 -9L7 -5.6L8.8 2L3.9 8.1L-3.9 8.1L-8.8 2L-7 -5.6Z" stroke="#181c1f" fill="none" stroke-width="2"></path></g><g transform="translate(9 589)"><path d="M0 -1L0.8 -0.6L1 0.2L0.4 0.9L-0.4 0.9L-1 0.2L-0.8 -0.6Z" stroke="#181c1f" fill="none" stroke-width="2"></path></g><g transform="translate(274 432)"><path d="M0 -1L0.8 -0.6L1 0.2L0.4 0.9L-0.4 0.9L-1 0.2L-0.8 -0.6Z" stroke="#181c1f" fill="none" stroke-width="2"></path></g><g transform="translate(165 302)"><path d="M0 -10L7.8 -6.2L9.7 2.2L4.3 9L-4.3 9L-9.7 2.2L-7.8 -6.2Z" stroke="#181c1f" fill="none" stroke-width="2"></path></g><g transform="translate(139 373)"><path d="M0 -9L7 -5.6L8.8 2L3.9 8.1L-3.9 8.1L-8.8 2L-7 -5.6Z" stroke="#181c1f" fill="none" stroke-width="2"></path></g><g transform="translate(580 149)"><path d="M0 -10L7.8 -6.2L9.7 2.2L4.3 9L-4.3 9L-9.7 2.2L-7.8 -6.2Z" stroke="#181c1f" fill="none" stroke-width="2"></path></g><g transform="translate(263 211)"><path d="M0 -4L3.1 -2.5L3.9 0.9L1.7 3.6L-1.7 3.6L-3.9 0.9L-3.1 -2.5Z" stroke="#181c1f" fill="none" stroke-width="2"></path></g><g transform="translate(407 514)"><path d="M0 -2L1.6 -1.2L1.9 0.4L0.9 1.8L-0.9 1.8L-1.9 0.4L-1.6 -1.2Z" stroke="#181c1f" fill="none" stroke-width="2"></path></g><g transform="translate(5 412)"><path d="M0 -8L6.3 -5L7.8 1.8L3.5 7.2L-3.5 7.2L-7.8 1.8L-6.3 -5Z" stroke="#181c1f" fill="none" stroke-width="2"></path></g><g transform="translate(898 59)"><path d="M0 -3L2.3 -1.9L2.9 0.7L1.3 2.7L-1.3 2.7L-2.9 0.7L-2.3 -1.9Z" stroke="#181c1f" fill="none" stroke-width="2"></path></g><g transform="translate(312 596)"><path d="M0 -1L0.8 -0.6L1 0.2L0.4 0.9L-0.4 0.9L-1 0.2L-0.8 -0.6Z" stroke="#181c1f" fill="none" stroke-width="2"></path></g><g transform="translate(63 31)"><path d="M0 -4L3.1 -2.5L3.9 0.9L1.7 3.6L-1.7 3.6L-3.9 0.9L-3.1 -2.5Z" stroke="#181c1f" fill="none" stroke-width="2"></path></g><g transform="translate(596 475)"><path d="M0 -12L9.4 -7.5L11.7 2.7L5.2 10.8L-5.2 10.8L-11.7 2.7L-9.4 -7.5Z" stroke="#181c1f" fill="none" stroke-width="2"></path></g><g transform="translate(623 2)"><path d="M0 -9L7 -5.6L8.8 2L3.9 8.1L-3.9 8.1L-8.8 2L-7 -5.6Z" stroke="#181c1f" fill="none" stroke-width="2"></path></g><g transform="translate(366 430)"><path d="M0 -5L3.9 -3.1L4.9 1.1L2.2 4.5L-2.2 4.5L-4.9 1.1L-3.9 -3.1Z" stroke="#181c1f" fill="none" stroke-width="2"></path></g><g transform="translate(472 514)"><path d="M0 -6L4.7 -3.7L5.8 1.3L2.6 5.4L-2.6 5.4L-5.8 1.3L-4.7 -3.7Z" stroke="#181c1f" fill="none" stroke-width="2"></path></g><g transform="translate(713 107)"><path d="M0 -2L1.6 -1.2L1.9 0.4L0.9 1.8L-0.9 1.8L-1.9 0.4L-1.6 -1.2Z" stroke="#181c1f" fill="none" stroke-width="2"></path></g><g transform="translate(463 339)"><path d="M0 -4L3.1 -2.5L3.9 0.9L1.7 3.6L-1.7 3.6L-3.9 0.9L-3.1 -2.5Z" stroke="#181c1f" fill="none" stroke-width="2"></path></g><g transform="translate(895 247)"><path d="M0 -6L4.7 -3.7L5.8 1.3L2.6 5.4L-2.6 5.4L-5.8 1.3L-4.7 -3.7Z" stroke="#181c1f" fill="none" stroke-width="2"></path></g><g transform="translate(528 443)"><path d="M0 -4L3.1 -2.5L3.9 0.9L1.7 3.6L-1.7 3.6L-3.9 0.9L-3.1 -2.5Z" stroke="#181c1f" fill="none" stroke-width="2"></path></g><g transform="translate(705 319)"><path d="M0 -11L8.6 -6.9L10.7 2.4L4.8 9.9L-4.8 9.9L-10.7 2.4L-8.6 -6.9Z" stroke="#181c1f" fill="none" stroke-width="2"></path></g><g transform="translate(853 308)"><path d="M0 -2L1.6 -1.2L1.9 0.4L0.9 1.8L-0.9 1.8L-1.9 0.4L-1.6 -1.2Z" stroke="#181c1f" fill="none" stroke-width="2"></path></g><g transform="translate(340 323)"><path d="M0 -9L7 -5.6L8.8 2L3.9 8.1L-3.9 8.1L-8.8 2L-7 -5.6Z" stroke="#181c1f" fill="none" stroke-width="2"></path></g><g transform="translate(460 408)"><path d="M0 -4L3.1 -2.5L3.9 0.9L1.7 3.6L-1.7 3.6L-3.9 0.9L-3.1 -2.5Z" stroke="#181c1f" fill="none" stroke-width="2"></path></g><g transform="translate(9 334)"><path d="M0 -11L8.6 -6.9L10.7 2.4L4.8 9.9L-4.8 9.9L-10.7 2.4L-8.6 -6.9Z" stroke="#181c1f" fill="none" stroke-width="2"></path></g><g transform="translate(571 453)"><path d="M0 -12L9.4 -7.5L11.7 2.7L5.2 10.8L-5.2 10.8L-11.7 2.7L-9.4 -7.5Z" stroke="#181c1f" fill="none" stroke-width="2"></path></g><g transform="translate(213 144)"><path d="M0 -5L3.9 -3.1L4.9 1.1L2.2 4.5L-2.2 4.5L-4.9 1.1L-3.9 -3.1Z" stroke="#181c1f" fill="none" stroke-width="2"></path></g><g transform="translate(44 98)"><path d="M0 -5L3.9 -3.1L4.9 1.1L2.2 4.5L-2.2 4.5L-4.9 1.1L-3.9 -3.1Z" stroke="#181c1f" fill="none" stroke-width="2"></path></g><g transform="translate(81 477)"><path d="M0 -9L7 -5.6L8.8 2L3.9 8.1L-3.9 8.1L-8.8 2L-7 -5.6Z" stroke="#181c1f" fill="none" stroke-width="2"></path></g><g transform="translate(278 311)"><path d="M0 -11L8.6 -6.9L10.7 2.4L4.8 9.9L-4.8 9.9L-10.7 2.4L-8.6 -6.9Z" stroke="#181c1f" fill="none" stroke-width="2"></path></g><g transform="translate(739 441)"><path d="M0 -11L8.6 -6.9L10.7 2.4L4.8 9.9L-4.8 9.9L-10.7 2.4L-8.6 -6.9Z" stroke="#181c1f" fill="none" stroke-width="2"></path></g><g transform="translate(396 589)"><path d="M0 -9L7 -5.6L8.8 2L3.9 8.1L-3.9 8.1L-8.8 2L-7 -5.6Z" stroke="#181c1f" fill="none" stroke-width="2"></path></g><g transform="translate(797 289)"><path d="M0 -1L0.8 -0.6L1 0.2L0.4 0.9L-0.4 0.9L-1 0.2L-0.8 -0.6Z" stroke="#181c1f" fill="none" stroke-width="2"></path></g><g transform="translate(866 199)"><path d="M0 -11L8.6 -6.9L10.7 2.4L4.8 9.9L-4.8 9.9L-10.7 2.4L-8.6 -6.9Z" stroke="#181c1f" fill="none" stroke-width="2"></path></g><g transform="translate(707 559)"><path d="M0 -6L4.7 -3.7L5.8 1.3L2.6 5.4L-2.6 5.4L-5.8 1.3L-4.7 -3.7Z" stroke="#181c1f" fill="none" stroke-width="2"></path></g><g transform="translate(465 296)"><path d="M0 -2L1.6 -1.2L1.9 0.4L0.9 1.8L-0.9 1.8L-1.9 0.4L-1.6 -1.2Z" stroke="#181c1f" fill="none" stroke-width="2"></path></g><g transform="translate(218 4)"><path d="M0 -6L4.7 -3.7L5.8 1.3L2.6 5.4L-2.6 5.4L-5.8 1.3L-4.7 -3.7Z" stroke="#181c1f" fill="none" stroke-width="2"></path></g><g transform="translate(329 82)"><path d="M0 -1L0.8 -0.6L1 0.2L0.4 0.9L-0.4 0.9L-1 0.2L-0.8 -0.6Z" stroke="#181c1f" fill="none" stroke-width="2"></path></g><g transform="translate(663 306)"><path d="M0 -1L0.8 -0.6L1 0.2L0.4 0.9L-0.4 0.9L-1 0.2L-0.8 -0.6Z" stroke="#181c1f" fill="none" stroke-width="2"></path></g><g transform="translate(20 360)"><path d="M0 -1L0.8 -0.6L1 0.2L0.4 0.9L-0.4 0.9L-1 0.2L-0.8 -0.6Z" stroke="#181c1f" fill="none" stroke-width="2"></path></g><g transform="translate(828 207)"><path d="M0 -6L4.7 -3.7L5.8 1.3L2.6 5.4L-2.6 5.4L-5.8 1.3L-4.7 -3.7Z" stroke="#181c1f" fill="none" stroke-width="2"></path></g><g transform="translate(377 304)"><path d="M0 -12L9.4 -7.5L11.7 2.7L5.2 10.8L-5.2 10.8L-11.7 2.7L-9.4 -7.5Z" stroke="#181c1f" fill="none" stroke-width="2"></path></g><g transform="translate(14 288)"><path d="M0 -3L2.3 -1.9L2.9 0.7L1.3 2.7L-1.3 2.7L-2.9 0.7L-2.3 -1.9Z" stroke="#181c1f" fill="none" stroke-width="2"></path></g><g transform="translate(274 47)"><path d="M0 -4L3.1 -2.5L3.9 0.9L1.7 3.6L-1.7 3.6L-3.9 0.9L-3.1 -2.5Z" stroke="#181c1f" fill="none" stroke-width="2"></path></g><g transform="translate(32 189)"><path d="M0 -10L7.8 -6.2L9.7 2.2L4.3 9L-4.3 9L-9.7 2.2L-7.8 -6.2Z" stroke="#181c1f" fill="none" stroke-width="2"></path></g><g transform="translate(721 464)"><path d="M0 -12L9.4 -7.5L11.7 2.7L5.2 10.8L-5.2 10.8L-11.7 2.7L-9.4 -7.5Z" stroke="#181c1f" fill="none" stroke-width="2"></path></g><g transform="translate(17 10)"><path d="M0 -4L3.1 -2.5L3.9 0.9L1.7 3.6L-1.7 3.6L-3.9 0.9L-3.1 -2.5Z" stroke="#181c1f" fill="none" stroke-width="2"></path></g><g transform="translate(751 59)"><path d="M0 -4L3.1 -2.5L3.9 0.9L1.7 3.6L-1.7 3.6L-3.9 0.9L-3.1 -2.5Z" stroke="#181c1f" fill="none" stroke-width="2"></path></g><g transform="translate(92 537)"><path d="M0 -4L3.1 -2.5L3.9 0.9L1.7 3.6L-1.7 3.6L-3.9 0.9L-3.1 -2.5Z" stroke="#181c1f" fill="none" stroke-width="2"></path></g><g transform="translate(380 539)"><path d="M0 -6L4.7 -3.7L5.8 1.3L2.6 5.4L-2.6 5.4L-5.8 1.3L-4.7 -3.7Z" stroke="#181c1f" fill="none" stroke-width="2"></path></g><g transform="translate(819 344)"><path d="M0 -10L7.8 -6.2L9.7 2.2L4.3 9L-4.3 9L-9.7 2.2L-7.8 -6.2Z" stroke="#181c1f" fill="none" stroke-width="2"></path></g><g transform="translate(86 440)"><path d="M0 -2L1.6 -1.2L1.9 0.4L0.9 1.8L-0.9 1.8L-1.9 0.4L-1.6 -1.2Z" stroke="#181c1f" fill="none" stroke-width="2"></path></g><g transform="translate(229 39)"><path d="M0 -8L6.3 -5L7.8 1.8L3.5 7.2L-3.5 7.2L-7.8 1.8L-6.3 -5Z" stroke="#181c1f" fill="none" stroke-width="2"></path></g><g transform="translate(380 245)"><path d="M0 -4L3.1 -2.5L3.9 0.9L1.7 3.6L-1.7 3.6L-3.9 0.9L-3.1 -2.5Z" stroke="#181c1f" fill="none" stroke-width="2"></path></g><g transform="translate(213 241)"><path d="M0 -10L7.8 -6.2L9.7 2.2L4.3 9L-4.3 9L-9.7 2.2L-7.8 -6.2Z" stroke="#181c1f" fill="none" stroke-width="2"></path></g><g transform="translate(118 56)"><path d="M0 -9L7 -5.6L8.8 2L3.9 8.1L-3.9 8.1L-8.8 2L-7 -5.6Z" stroke="#181c1f" fill="none" stroke-width="2"></path></g><g transform="translate(245 597)"><path d="M0 -1L0.8 -0.6L1 0.2L0.4 0.9L-0.4 0.9L-1 0.2L-0.8 -0.6Z" stroke="#181c1f" fill="none" stroke-width="2"></path></g><g transform="translate(428 215)"><path d="M0 -9L7 -5.6L8.8 2L3.9 8.1L-3.9 8.1L-8.8 2L-7 -5.6Z" stroke="#181c1f" fill="none" stroke-width="2"></path></g><g transform="translate(865 146)"><path d="M0 -10L7.8 -6.2L9.7 2.2L4.3 9L-4.3 9L-9.7 2.2L-7.8 -6.2Z" stroke="#181c1f" fill="none" stroke-width="2"></path></g><g transform="translate(385 50)"><path d="M0 -7L5.5 -4.4L6.8 1.6L3 6.3L-3 6.3L-6.8 1.6L-5.5 -4.4Z" stroke="#181c1f" fill="none" stroke-width="2"></path></g><g transform="translate(769 438)"><path d="M0 -3L2.3 -1.9L2.9 0.7L1.3 2.7L-1.3 2.7L-2.9 0.7L-2.3 -1.9Z" stroke="#181c1f" fill="none" stroke-width="2"></path></g><g transform="translate(511 573)"><path d="M0 -9L7 -5.6L8.8 2L3.9 8.1L-3.9 8.1L-8.8 2L-7 -5.6Z" stroke="#181c1f" fill="none" stroke-width="2"></path></g><g transform="translate(335 459)"><path d="M0 -5L3.9 -3.1L4.9 1.1L2.2 4.5L-2.2 4.5L-4.9 1.1L-3.9 -3.1Z" stroke="#181c1f" fill="none" stroke-width="2"></path></g><g transform="translate(424 253)"><path d="M0 -10L7.8 -6.2L9.7 2.2L4.3 9L-4.3 9L-9.7 2.2L-7.8 -6.2Z" stroke="#181c1f" fill="none" stroke-width="2"></path></g><g transform="translate(179 273)"><path d="M0 -9L7 -5.6L8.8 2L3.9 8.1L-3.9 8.1L-8.8 2L-7 -5.6Z" stroke="#181c1f" fill="none" stroke-width="2"></path></g><g transform="translate(168 224)"><path d="M0 -7L5.5 -4.4L6.8 1.6L3 6.3L-3 6.3L-6.8 1.6L-5.5 -4.4Z" stroke="#181c1f" fill="none" stroke-width="2"></path></g><g transform="translate(837 47)"><path d="M0 -10L7.8 -6.2L9.7 2.2L4.3 9L-4.3 9L-9.7 2.2L-7.8 -6.2Z" stroke="#181c1f" fill="none" stroke-width="2"></path></g><g transform="translate(60 223)"><path d="M0 -7L5.5 -4.4L6.8 1.6L3 6.3L-3 6.3L-6.8 1.6L-5.5 -4.4Z" stroke="#181c1f" fill="none" stroke-width="2"></path></g><g transform="translate(2 134)"><path d="M0 -5L3.9 -3.1L4.9 1.1L2.2 4.5L-2.2 4.5L-4.9 1.1L-3.9 -3.1Z" stroke="#181c1f" fill="none" stroke-width="2"></path></g><g transform="translate(182 496)"><path d="M0 -1L0.8 -0.6L1 0.2L0.4 0.9L-0.4 0.9L-1 0.2L-0.8 -0.6Z" stroke="#181c1f" fill="none" stroke-width="2"></path></g><g transform="translate(161 583)"><path d="M0 -5L3.9 -3.1L4.9 1.1L2.2 4.5L-2.2 4.5L-4.9 1.1L-3.9 -3.1Z" stroke="#181c1f" fill="none" stroke-width="2"></path></g><g transform="translate(544 259)"><path d="M0 -3L2.3 -1.9L2.9 0.7L1.3 2.7L-1.3 2.7L-2.9 0.7L-2.3 -1.9Z" stroke="#181c1f" fill="none" stroke-width="2"></path></g><g transform="translate(322 217)"><path d="M0 -9L7 -5.6L8.8 2L3.9 8.1L-3.9 8.1L-8.8 2L-7 -5.6Z" stroke="#181c1f" fill="none" stroke-width="2"></path></g><g transform="translate(400 91)"><path d="M0 -3L2.3 -1.9L2.9 0.7L1.3 2.7L-1.3 2.7L-2.9 0.7L-2.3 -1.9Z" stroke="#181c1f" fill="none" stroke-width="2"></path></g><g transform="translate(336 575)"><path d="M0 -5L3.9 -3.1L4.9 1.1L2.2 4.5L-2.2 4.5L-4.9 1.1L-3.9 -3.1Z" stroke="#181c1f" fill="none" stroke-width="2"></path></g><g transform="translate(898 352)"><path d="M0 -3L2.3 -1.9L2.9 0.7L1.3 2.7L-1.3 2.7L-2.9 0.7L-2.3 -1.9Z" stroke="#181c1f" fill="none" stroke-width="2"></path></g><g transform="translate(709 203)"><path d="M0 -6L4.7 -3.7L5.8 1.3L2.6 5.4L-2.6 5.4L-5.8 1.3L-4.7 -3.7Z" stroke="#181c1f" fill="none" stroke-width="2"></path></g><g transform="translate(183 456)"><path d="M0 -9L7 -5.6L8.8 2L3.9 8.1L-3.9 8.1L-8.8 2L-7 -5.6Z" stroke="#181c1f" fill="none" stroke-width="2"></path></g><g transform="translate(890 1)"><path d="M0 -3L2.3 -1.9L2.9 0.7L1.3 2.7L-1.3 2.7L-2.9 0.7L-2.3 -1.9Z" stroke="#181c1f" fill="none" stroke-width="2"></path></g><g transform="translate(741 322)"><path d="M0 -5L3.9 -3.1L4.9 1.1L2.2 4.5L-2.2 4.5L-4.9 1.1L-3.9 -3.1Z" stroke="#181c1f" fill="none" stroke-width="2"></path></g><g transform="translate(760 382)"><path d="M0 -3L2.3 -1.9L2.9 0.7L1.3 2.7L-1.3 2.7L-2.9 0.7L-2.3 -1.9Z" stroke="#181c1f" fill="none" stroke-width="2"></path></g><g transform="translate(532 417)"><path d="M0 -6L4.7 -3.7L5.8 1.3L2.6 5.4L-2.6 5.4L-5.8 1.3L-4.7 -3.7Z" stroke="#181c1f" fill="none" stroke-width="2"></path></g><g transform="translate(99 389)"><path d="M0 -7L5.5 -4.4L6.8 1.6L3 6.3L-3 6.3L-6.8 1.6L-5.5 -4.4Z" stroke="#181c1f" fill="none" stroke-width="2"></path></g><g transform="translate(612 58)"><path d="M0 -6L4.7 -3.7L5.8 1.3L2.6 5.4L-2.6 5.4L-5.8 1.3L-4.7 -3.7Z" stroke="#181c1f" fill="none" stroke-width="2"></path></g><g transform="translate(3 440)"><path d="M0 -8L6.3 -5L7.8 1.8L3.5 7.2L-3.5 7.2L-7.8 1.8L-6.3 -5Z" stroke="#181c1f" fill="none" stroke-width="2"></path></g><g transform="translate(687 2)"><path d="M0 -12L9.4 -7.5L11.7 2.7L5.2 10.8L-5.2 10.8L-11.7 2.7L-9.4 -7.5Z" stroke="#181c1f" fill="none" stroke-width="2"></path></g><g transform="translate(767 527)"><path d="M0 -4L3.1 -2.5L3.9 0.9L1.7 3.6L-1.7 3.6L-3.9 0.9L-3.1 -2.5Z" stroke="#181c1f" fill="none" stroke-width="2"></path></g><g transform="translate(205 268)"><path d="M0 -1L0.8 -0.6L1 0.2L0.4 0.9L-0.4 0.9L-1 0.2L-0.8 -0.6Z" stroke="#181c1f" fill="none" stroke-width="2"></path></g><g transform="translate(778 76)"><path d="M0 -2L1.6 -1.2L1.9 0.4L0.9 1.8L-0.9 1.8L-1.9 0.4L-1.6 -1.2Z" stroke="#181c1f" fill="none" stroke-width="2"></path></g><g transform="translate(193 176)"><path d="M0 -6L4.7 -3.7L5.8 1.3L2.6 5.4L-2.6 5.4L-5.8 1.3L-4.7 -3.7Z" stroke="#181c1f" fill="none" stroke-width="2"></path></g><g transform="translate(139 78)"><path d="M0 -3L2.3 -1.9L2.9 0.7L1.3 2.7L-1.3 2.7L-2.9 0.7L-2.3 -1.9Z" stroke="#181c1f" fill="none" stroke-width="2"></path></g><g transform="translate(8 177)"><path d="M0 -4L3.1 -2.5L3.9 0.9L1.7 3.6L-1.7 3.6L-3.9 0.9L-3.1 -2.5Z" stroke="#181c1f" fill="none" stroke-width="2"></path></g><g transform="translate(396 209)"><path d="M0 -1L0.8 -0.6L1 0.2L0.4 0.9L-0.4 0.9L-1 0.2L-0.8 -0.6Z" stroke="#181c1f" fill="none" stroke-width="2"></path></g><g transform="translate(857 411)"><path d="M0 -1L0.8 -0.6L1 0.2L0.4 0.9L-0.4 0.9L-1 0.2L-0.8 -0.6Z" stroke="#181c1f" fill="none" stroke-width="2"></path></g><g transform="translate(563 595)"><path d="M0 -6L4.7 -3.7L5.8 1.3L2.6 5.4L-2.6 5.4L-5.8 1.3L-4.7 -3.7Z" stroke="#181c1f" fill="none" stroke-width="2"></path></g><g transform="translate(319 407)"><path d="M0 -8L6.3 -5L7.8 1.8L3.5 7.2L-3.5 7.2L-7.8 1.8L-6.3 -5Z" stroke="#181c1f" fill="none" stroke-width="2"></path></g><g transform="translate(851 453)"><path d="M0 -3L2.3 -1.9L2.9 0.7L1.3 2.7L-1.3 2.7L-2.9 0.7L-2.3 -1.9Z" stroke="#181c1f" fill="none" stroke-width="2"></path></g><g transform="translate(567 519)"><path d="M0 -9L7 -5.6L8.8 2L3.9 8.1L-3.9 8.1L-8.8 2L-7 -5.6Z" stroke="#181c1f" fill="none" stroke-width="2"></path></g><g transform="translate(463 89)"><path d="M0 -10L7.8 -6.2L9.7 2.2L4.3 9L-4.3 9L-9.7 2.2L-7.8 -6.2Z" stroke="#181c1f" fill="none" stroke-width="2"></path></g><g transform="translate(818 266)"><path d="M0 -6L4.7 -3.7L5.8 1.3L2.6 5.4L-2.6 5.4L-5.8 1.3L-4.7 -3.7Z" stroke="#181c1f" fill="none" stroke-width="2"></path></g><g transform="translate(574 40)"><path d="M0 -11L8.6 -6.9L10.7 2.4L4.8 9.9L-4.8 9.9L-10.7 2.4L-8.6 -6.9Z" stroke="#181c1f" fill="none" stroke-width="2"></path></g><g transform="translate(610 207)"><path d="M0 -11L8.6 -6.9L10.7 2.4L4.8 9.9L-4.8 9.9L-10.7 2.4L-8.6 -6.9Z" stroke="#181c1f" fill="none" stroke-width="2"></path></g><g transform="translate(324 12)"><path d="M0 -7L5.5 -4.4L6.8 1.6L3 6.3L-3 6.3L-6.8 1.6L-5.5 -4.4Z" stroke="#181c1f" fill="none" stroke-width="2"></path></g><g transform="translate(127 135)"><path d="M0 -9L7 -5.6L8.8 2L3.9 8.1L-3.9 8.1L-8.8 2L-7 -5.6Z" stroke="#181c1f" fill="none" stroke-width="2"></path></g><g transform="translate(210 353)"><path d="M0 -5L3.9 -3.1L4.9 1.1L2.2 4.5L-2.2 4.5L-4.9 1.1L-3.9 -3.1Z" stroke="#181c1f" fill="none" stroke-width="2"></path></g><g transform="translate(195 219)"><path d="M0 -4L3.1 -2.5L3.9 0.9L1.7 3.6L-1.7 3.6L-3.9 0.9L-3.1 -2.5Z" stroke="#181c1f" fill="none" stroke-width="2"></path></g><g transform="translate(138 181)"><path d="M0 -8L6.3 -5L7.8 1.8L3.5 7.2L-3.5 7.2L-7.8 1.8L-6.3 -5Z" stroke="#181c1f" fill="none" stroke-width="2"></path></g><g transform="translate(648 254)"><path d="M0 -3L2.3 -1.9L2.9 0.7L1.3 2.7L-1.3 2.7L-2.9 0.7L-2.3 -1.9Z" stroke="#181c1f" fill="none" stroke-width="2"></path></g><g transform="translate(481 3)"><path d="M0 -3L2.3 -1.9L2.9 0.7L1.3 2.7L-1.3 2.7L-2.9 0.7L-2.3 -1.9Z" stroke="#181c1f" fill="none" stroke-width="2"></path></g><g transform="translate(81 355)"><path d="M0 -9L7 -5.6L8.8 2L3.9 8.1L-3.9 8.1L-8.8 2L-7 -5.6Z" stroke="#181c1f" fill="none" stroke-width="2"></path></g><g transform="translate(305 170)"><path d="M0 -3L2.3 -1.9L2.9 0.7L1.3 2.7L-1.3 2.7L-2.9 0.7L-2.3 -1.9Z" stroke="#181c1f" fill="none" stroke-width="2"></path></g><g transform="translate(474 169)"><path d="M0 -9L7 -5.6L8.8 2L3.9 8.1L-3.9 8.1L-8.8 2L-7 -5.6Z" stroke="#181c1f" fill="none" stroke-width="2"></path></g><g transform="translate(621 278)"><path d="M0 -12L9.4 -7.5L11.7 2.7L5.2 10.8L-5.2 10.8L-11.7 2.7L-9.4 -7.5Z" stroke="#181c1f" fill="none" stroke-width="2"></path></g><g transform="translate(831 523)"><path d="M0 -6L4.7 -3.7L5.8 1.3L2.6 5.4L-2.6 5.4L-5.8 1.3L-4.7 -3.7Z" stroke="#181c1f" fill="none" stroke-width="2"></path></g><g transform="translate(843 118)"><path d="M0 -4L3.1 -2.5L3.9 0.9L1.7 3.6L-1.7 3.6L-3.9 0.9L-3.1 -2.5Z" stroke="#181c1f" fill="none" stroke-width="2"></path></g><g transform="translate(898 417)"><path d="M0 -2L1.6 -1.2L1.9 0.4L0.9 1.8L-0.9 1.8L-1.9 0.4L-1.6 -1.2Z" stroke="#181c1f" fill="none" stroke-width="2"></path></g><g transform="translate(160 390)"><path d="M0 -4L3.1 -2.5L3.9 0.9L1.7 3.6L-1.7 3.6L-3.9 0.9L-3.1 -2.5Z" stroke="#181c1f" fill="none" stroke-width="2"></path></g><g transform="translate(470 141)"><path d="M0 -9L7 -5.6L8.8 2L3.9 8.1L-3.9 8.1L-8.8 2L-7 -5.6Z" stroke="#181c1f" fill="none" stroke-width="2"></path></g><g transform="translate(617 563)"><path d="M0 -12L9.4 -7.5L11.7 2.7L5.2 10.8L-5.2 10.8L-11.7 2.7L-9.4 -7.5Z" stroke="#181c1f" fill="none" stroke-width="2"></path></g><g transform="translate(730 6)"><path d="M0 -1L0.8 -0.6L1 0.2L0.4 0.9L-0.4 0.9L-1 0.2L-0.8 -0.6Z" stroke="#181c1f" fill="none" stroke-width="2"></path></g><g transform="translate(371 161)"><path d="M0 -2L1.6 -1.2L1.9 0.4L0.9 1.8L-0.9 1.8L-1.9 0.4L-1.6 -1.2Z" stroke="#181c1f" fill="none" stroke-width="2"></path></g><g transform="translate(367 329)"><path d="M0 -3L2.3 -1.9L2.9 0.7L1.3 2.7L-1.3 2.7L-2.9 0.7L-2.3 -1.9Z" stroke="#181c1f" fill="none" stroke-width="2"></path></g><g transform="translate(735 37)"><path d="M0 -2L1.6 -1.2L1.9 0.4L0.9 1.8L-0.9 1.8L-1.9 0.4L-1.6 -1.2Z" stroke="#181c1f" fill="none" stroke-width="2"></path></g><g transform="translate(174 114)"><path d="M0 -4L3.1 -2.5L3.9 0.9L1.7 3.6L-1.7 3.6L-3.9 0.9L-3.1 -2.5Z" stroke="#181c1f" fill="none" stroke-width="2"></path></g><g transform="translate(405 307)"><path d="M0 -8L6.3 -5L7.8 1.8L3.5 7.2L-3.5 7.2L-7.8 1.8L-6.3 -5Z" stroke="#181c1f" fill="none" stroke-width="2"></path></g><g transform="translate(504 294)"><path d="M0 -8L6.3 -5L7.8 1.8L3.5 7.2L-3.5 7.2L-7.8 1.8L-6.3 -5Z" stroke="#181c1f" fill="none" stroke-width="2"></path></g><g transform="translate(706 53)"><path d="M0 -12L9.4 -7.5L11.7 2.7L5.2 10.8L-5.2 10.8L-11.7 2.7L-9.4 -7.5Z" stroke="#181c1f" fill="none" stroke-width="2"></path></g><g transform="translate(55 597)"><path d="M0 -9L7 -5.6L8.8 2L3.9 8.1L-3.9 8.1L-8.8 2L-7 -5.6Z" stroke="#181c1f" fill="none" stroke-width="2"></path></g><g transform="translate(691 470)"><path d="M0 -10L7.8 -6.2L9.7 2.2L4.3 9L-4.3 9L-9.7 2.2L-7.8 -6.2Z" stroke="#181c1f" fill="none" stroke-width="2"></path></g><g transform="translate(129 480)"><path d="M0 -1L0.8 -0.6L1 0.2L0.4 0.9L-0.4 0.9L-1 0.2L-0.8 -0.6Z" stroke="#181c1f" fill="none" stroke-width="2"></path></g><g transform="translate(461 267)"><path d="M0 -10L7.8 -6.2L9.7 2.2L4.3 9L-4.3 9L-9.7 2.2L-7.8 -6.2Z" stroke="#181c1f" fill="none" stroke-width="2"></path></g><g transform="translate(1 35)"><path d="M0 -5L3.9 -3.1L4.9 1.1L2.2 4.5L-2.2 4.5L-4.9 1.1L-3.9 -3.1Z" stroke="#181c1f" fill="none" stroke-width="2"></path></g><g transform="translate(105 595)"><path d="M0 -5L3.9 -3.1L4.9 1.1L2.2 4.5L-2.2 4.5L-4.9 1.1L-3.9 -3.1Z" stroke="#181c1f" fill="none" stroke-width="2"></path></g><g transform="translate(4 93)"><path d="M0 -7L5.5 -4.4L6.8 1.6L3 6.3L-3 6.3L-6.8 1.6L-5.5 -4.4Z" stroke="#181c1f" fill="none" stroke-width="2"></path></g><g transform="translate(89 182)"><path d="M0 -12L9.4 -7.5L11.7 2.7L5.2 10.8L-5.2 10.8L-11.7 2.7L-9.4 -7.5Z" stroke="#181c1f" fill="none" stroke-width="2"></path></g><g transform="translate(481 571)"><path d="M0 -11L8.6 -6.9L10.7 2.4L4.8 9.9L-4.8 9.9L-10.7 2.4L-8.6 -6.9Z" stroke="#181c1f" fill="none" stroke-width="2"></path></g><g transform="translate(562 170)"><path d="M0 -12L9.4 -7.5L11.7 2.7L5.2 10.8L-5.2 10.8L-11.7 2.7L-9.4 -7.5Z" stroke="#181c1f" fill="none" stroke-width="2"></path></g><g transform="translate(649 563)"><path d="M0 -4L3.1 -2.5L3.9 0.9L1.7 3.6L-1.7 3.6L-3.9 0.9L-3.1 -2.5Z" stroke="#181c1f" fill="none" stroke-width="2"></path></g></g></svg>