<svg id="visual" viewBox="0 0 900 600" width="900" height="600" xmlns="http://www.w3.org/2000/svg" xmlns:xlink="http://www.w3.org/1999/xlink" version="1.1"><path d="M0 121L47 121L47 97L95 97L95 133L142 133L142 127L189 127L189 97L237 97L237 103L284 103L284 115L332 115L332 139L379 139L379 109L426 109L426 109L474 109L474 97L521 97L521 79L568 79L568 115L616 115L616 109L663 109L663 139L711 139L711 115L758 115L758 115L805 115L805 91L853 91L853 67L900 67L900 115L900 0L900 0L853 0L853 0L805 0L805 0L758 0L758 0L711 0L711 0L663 0L663 0L616 0L616 0L568 0L568 0L521 0L521 0L474 0L474 0L426 0L426 0L379 0L379 0L332 0L332 0L284 0L284 0L237 0L237 0L189 0L189 0L142 0L142 0L95 0L95 0L47 0L47 0L0 0Z" fill="#020509"></path><path d="M0 193L47 193L47 193L95 193L95 217L142 217L142 223L189 223L189 187L237 187L237 151L284 151L284 181L332 181L332 193L379 193L379 157L426 157L426 205L474 205L474 193L521 193L521 151L568 151L568 199L616 199L616 157L663 157L663 211L711 211L711 169L758 169L758 181L805 181L805 175L853 175L853 109L900 109L900 199L900 113L900 65L853 65L853 89L805 89L805 113L758 113L758 113L711 113L711 137L663 137L663 107L616 107L616 113L568 113L568 77L521 77L521 95L474 95L474 107L426 107L426 107L379 107L379 137L332 137L332 113L284 113L284 101L237 101L237 95L189 95L189 125L142 125L142 131L95 131L95 95L47 95L47 119L0 119Z" fill="#0a0e12"></path><path d="M0 325L47 325L47 337L95 337L95 433L142 433L142 397L189 397L189 331L237 331L237 277L284 277L284 307L332 307L332 409L379 409L379 307L426 307L426 367L474 367L474 331L521 331L521 355L568 355L568 367L616 367L616 283L663 283L663 367L711 367L711 319L758 319L758 331L805 331L805 289L853 289L853 319L900 319L900 379L900 197L900 107L853 107L853 173L805 173L805 179L758 179L758 167L711 167L711 209L663 209L663 155L616 155L616 197L568 197L568 149L521 149L521 191L474 191L474 203L426 203L426 155L379 155L379 191L332 191L332 179L284 179L284 149L237 149L237 185L189 185L189 221L142 221L142 215L95 215L95 191L47 191L47 191L0 191Z" fill="#111418"></path><path d="M0 505L47 505L47 517L95 517L95 535L142 535L142 517L189 517L189 511L237 511L237 481L284 481L284 499L332 499L332 529L379 529L379 481L426 481L426 535L474 535L474 517L521 517L521 511L568 511L568 493L616 493L616 499L663 499L663 517L711 517L711 511L758 511L758 523L805 523L805 493L853 493L853 487L900 487L900 529L900 377L900 317L853 317L853 287L805 287L805 329L758 329L758 317L711 317L711 365L663 365L663 281L616 281L616 365L568 365L568 353L521 353L521 329L474 329L474 365L426 365L426 305L379 305L379 407L332 407L332 305L284 305L284 275L237 275L237 329L189 329L189 395L142 395L142 431L95 431L95 335L47 335L47 323L0 323Z" fill="#16191e"></path><path d="M0 601L47 601L47 601L95 601L95 601L142 601L142 601L189 601L189 601L237 601L237 601L284 601L284 601L332 601L332 601L379 601L379 601L426 601L426 601L474 601L474 601L521 601L521 601L568 601L568 601L616 601L616 601L663 601L663 601L711 601L711 601L758 601L758 601L805 601L805 601L853 601L853 601L900 601L900 601L900 527L900 485L853 485L853 491L805 491L805 521L758 521L758 509L711 509L711 515L663 515L663 497L616 497L616 491L568 491L568 509L521 509L521 515L474 515L474 533L426 533L426 479L379 479L379 527L332 527L332 497L284 497L284 479L237 479L237 509L189 509L189 515L142 515L142 533L95 533L95 515L47 515L47 503L0 503Z" fill="#1b1e24"></path></svg>