<svg viewBox="0 0 328 43" xmlns="http://www.w3.org/2000/svg" data-logo="logo">
            <g transform="translate(0, 1) rotate(0)" id="logogram" style="opacity: 1;"><path fill="#FC5800" d="M13.5998 0.699913C19.6248 0.699913 24.5089 5.58408 24.5089 11.609V30.6999C24.5089 31.202 24.9159 31.609 25.418 31.609C25.9201 31.609 26.3271 31.202 26.3271 30.6999V11.609C26.3271 5.58408 31.2113 0.699913 37.2362 0.699913H51.7816C58.8107 0.699913 64.5089 6.39811 64.5089 13.4272V17.9868C64.5089 21.0489 63.4053 24.0092 61.3999 26.3231L48.939 40.6999H34.5036L53.1559 19.1783L53.2571 19.0504C53.4795 18.742 53.5998 18.3698 53.5998 17.9868V13.4272C53.5998 12.423 52.7858 11.609 51.7816 11.609H39.0544V10.6999C39.0544 10.1978 38.6474 9.79082 38.1453 9.79082C37.6432 9.79082 37.2362 10.1978 37.2362 10.6999V29.7908C37.2362 35.8157 32.352 40.6999 26.3271 40.6999H24.5089C18.484 40.6999 13.5998 35.8157 13.5998 29.7908V10.6999C13.5998 10.1978 13.1928 9.79082 12.6907 9.79082C12.1887 9.79082 11.7816 10.1978 11.7816 10.6999V40.6999H0.872559V11.609C0.872559 5.58408 5.75673 0.699913 11.7816 0.699913H13.5998Z"></path></g>
            <g transform="translate(71, 3)" id="logotype" style="opacity: 1;"><path d="M34.24 20.83L37.98 24.94L37.98 37L30.91 37L30.91 26.55L27.79 23.06L16.45 23.06L16.45 37L9.38 37L9.38 0.60L32.21 0.60L37.77 6.22L37.77 17.24L34.24 20.83ZM16.45 6.53L16.45 17.24L28.98 17.24L30.80 15.42L30.80 8.35L28.98 6.53L16.45 6.53ZM47.70 37L42.35 31.59L42.35 16.51L47.70 11.10L62.58 11.10L67.93 16.51L67.93 31.59L62.58 37L47.70 37ZM51.03 31.28L59.25 31.28L61.07 29.46L61.07 18.64L59.25 16.82L51.03 16.82L49.21 18.64L49.21 29.46L51.03 31.28ZM77.50 37L72.04 31.54L72.04 11.10L78.90 11.10L78.90 29.41L80.67 31.18L84.83 31.18L89.93 26.08L89.93 11.10L96.79 11.10L96.79 37L90.45 37L90.45 32.58L85.98 37L77.50 37ZM101.68 37L101.68 11.10L108.02 11.10L108.02 15.42L112.34 11.10L120.71 11.10L126.48 16.88L126.48 37L119.62 37L119.62 18.75L117.85 16.93L113.48 16.93L108.54 21.92L108.54 37L101.68 37ZM135.95 37L130.59 31.59L130.59 16.51L135.95 11.10L146.24 11.10L149.31 13.76L149.31-0.13L156.18-0.13L156.18 37L149.73 37L149.73 33.00L145.72 37L135.95 37ZM139.43 31.18L145.10 31.18L149.31 26.86L149.31 20.10L145.78 16.93L139.43 16.93L137.46 18.96L137.46 29.15L139.43 31.18ZM161.32 37L161.32 0.60L184.15 0.60L189.35 5.80L189.35 15.99L187.27 18.12L190.96 21.87L190.96 31.38L185.35 37L161.32 37ZM168.24 15.84L180.51 15.84L182.38 13.96L182.38 8.35L180.56 6.53L168.24 6.53L168.24 15.84ZM168.24 31.07L181.76 31.07L184.00 28.84L184.00 23.74L181.76 21.50L168.24 21.50L168.24 31.07ZM199.28 37L194.03 31.70L194.03 16.51L199.39 11.10L214 11.10L219.41 16.51L219.41 26.34L200.90 26.34L200.90 29.67L202.56 31.38L211.04 31.38L212.60 29.77L212.60 28.42L219.36 28.42L219.36 31.80L214.21 37L199.28 37ZM200.90 21.56L212.54 21.56L212.54 18.54L210.78 16.72L202.66 16.72L200.90 18.54L200.90 21.56ZM246.81 37L239.06 37L233.34 29.10L227.62 37L219.88 37L229.55 23.84L220.14 11.10L227.88 11.10L233.34 18.70L238.80 11.10L246.55 11.10L237.19 23.95L246.81 37ZM250.04 37L247.80 34.76L247.80 31.44L250.04 29.20L253.83 29.20L256.02 31.49L256.02 34.71L253.83 37L250.04 37Z" fill="#ffffff"></path></g>
            
          </svg>